<?xml version="1.0" encoding="UTF-8" standalone="no"?>
<!-- Created with Inkscape (http://www.inkscape.org/) -->

<svg
   xmlns:dc="http://purl.org/dc/elements/1.1/"
   xmlns:cc="http://creativecommons.org/ns#"
   xmlns:rdf="http://www.w3.org/1999/02/22-rdf-syntax-ns#"
   xmlns:svg="http://www.w3.org/2000/svg"
   xmlns="http://www.w3.org/2000/svg"
   xmlns:sodipodi="http://sodipodi.sourceforge.net/DTD/sodipodi-0.dtd"
   xmlns:inkscape="http://www.inkscape.org/namespaces/inkscape"
   width="1200"
   height="720"
   viewBox="0 0 317.50001 190.49999"
   version="1.1"
   id="svg8"
   inkscape:version="0.92.4 (5da689c313, 2019-01-14)"
   sodipodi:docname="Composição1.3b.svg">
   <style>
     #g7779{
        transform: scale(1.0);
    }
     #g6690{
      transform: scale(1) translate(-75%, -182%);
        transform-origin: 204% 322.8%;
        will-change: transform;
    } 
    #g7461{
      transform: scale(1) translate(-66%, -158%);
        transform-origin: 193% 353.8%;
        will-change: transform;
    }
    #g7605{
      transform: scale(1) translate(-45%, -142%);
        transform-origin: 198% 363.8%;
        will-change: transform;
    }
    #g7659{
      transform: scale(1) translate(-12%, -72%);
    }
    </style>
    <script>
    window.addEventListener("load", function() {
   document.getElementById("g6690").animate(
            [{transform: 'translate(-75%, -182%) rotate(360deg)'},
            {transform: 'translate(-75%, -182%) rotate(0deg)'}],
            {duration: 8000, 
             iterations: Infinity}
           );
   document.getElementById("g7461").animate(
            [{transform: 'translate(-66%, -158%) rotate(360deg)'},
            {transform: 'translate(-66%, -158%) rotate(0deg)'}],
            {duration: 16000, 
             iterations: Infinity}
           );
   document.getElementById("g7605").animate(
            [{transform: 'translate(-45%, -142%) rotate(360deg)'},
            {transform: 'translate(-45%, -142%) rotate(0deg)'}],
            {duration: 20000, 
             iterations: Infinity}
           );
   document.getElementById("g7779").animate(
            [{transform: 'translateY(0%)'},
             {transform: 'translateY(5%)'},
             {transform: 'translateY(0%)'}],
            {duration: 800, 
             iterations: Infinity}
           );
           }, false);
</script>
  <defs
     id="defs2">
    <clipPath
       id="clip0">
      <path
         id="path4172"
         d="M -119,25 H 1374 V 1232 H -119 Z"
         inkscape:connector-curvature="0"
         style="clip-rule:evenodd;fill-rule:evenodd" />
    </clipPath>
    <clipPath
       id="clip0-1">
      <path
         id="path5168"
         clip-rule="evenodd"
         fill-rule="evenodd"
         d="M32 51 1240 51 1240 1258 32 1258Z" />
    </clipPath>
    <clipPath
       id="clip0-5">
      <path
         id="path6495"
         clip-rule="evenodd"
         fill-rule="evenodd"
         d="M240 221 1048 221 1048 990 240 990Z" />
    </clipPath>
    <clipPath
       id="clip0-2">
      <path
         id="path7382"
         clip-rule="evenodd"
         fill-rule="evenodd"
         d="M220 173 1033 173 1033 1150 220 1150Z" />
    </clipPath>
    <clipPath
       id="clip0-3">
      <path
         id="path7562"
         clip-rule="evenodd"
         fill-rule="evenodd"
         d="M132 128 1118 128 1118 1196 132 1196Z" />
    </clipPath>
    <clipPath
       id="clip0-8">
      <path
         id="path7652"
         clip-rule="evenodd"
         fill-rule="evenodd"
         d="M32 51 1240 51 1240 1258 32 1258Z" />
    </clipPath>
  </defs>
  <sodipodi:namedview
     id="base"
     pagecolor="#ffffff"
     bordercolor="#666666"
     borderopacity="1.0"
     inkscape:pageopacity="0.0"
     inkscape:pageshadow="2"
     inkscape:zoom="0.49497475"
     inkscape:cx="524.48563"
     inkscape:cy="-15.842731"
     inkscape:document-units="mm"
     inkscape:current-layer="layer5"
     showgrid="false"
     inkscape:snap-page="true"
     units="px"
     width="296mm"
     height="170mm"
     inkscape:window-width="1220"
     inkscape:window-height="880"
     inkscape:window-x="1291"
     inkscape:window-y="59"
     inkscape:window-maximized="1"
     showguides="true"
     inkscape:guide-bbox="true">
    <inkscape:grid
       type="xygrid"
       id="grid4845" />
    <sodipodi:guide
       position="3.2072344,228.7827"
       orientation="0,1"
       id="guide4847"
       inkscape:locked="false" />
    <sodipodi:guide
       position="160.36172,212.21199"
       orientation="1,0"
       id="guide4849"
       inkscape:locked="false" />
  </sodipodi:namedview>
  <metadata
     id="metadata5">
    <rdf:RDF>
      <cc:Work
         rdf:about="">
        <dc:format>image/svg+xml</dc:format>
        <dc:type
           rdf:resource="http://purl.org/dc/dcmitype/StillImage" />
        <dc:title></dc:title>
      </cc:Work>
    </rdf:RDF>
  </metadata>
  <g
     inkscape:groupmode="layer"
     id="layer3"
     inkscape:label="Sky"
     style="display:inline"
     transform="translate(85.365921,-133.12847)">
    <g
       style="overflow:hidden"
       id="g7671"
       transform="matrix(0.24651076,0,0,0.24651076,-74.581105,136.31589)">
      <g
         id="g7659"
         transform="translate(-32,-51)"
         clip-path="url(#clip0-8)">
        <path
           id="path7657"
           d="m 634.164,380.821 c -161.092,0 -291.683,130.699 -291.683,291.924 0,161.226 130.591,291.925 291.683,291.925 161.092,0 291.683,-130.699 291.683,-291.925 0,-161.225 -130.591,-291.924 -291.683,-291.924 z M 636,51 c 333.028,0 603,270.196 603,603.5 C 1239,987.804 969.028,1258 636,1258 302.972,1258 33,987.804 33,654.5 33,321.196 302.972,51 636,51 Z"
           inkscape:connector-curvature="0"
           style="fill:#deebf7;fill-rule:evenodd" />
      </g>
    </g>
  </g>
  <g
     inkscape:groupmode="layer"
     id="layer5"
     inkscape:label="City 2"
     style="display:inline">
    <g
       style="display:inline;overflow:hidden"
       id="g7635"
       transform="matrix(0.24651076,0,0,0.24651076,38.434444,21.13856)">
      <g
         id="g7605"
         transform="translate(-132,-128)"
         clip-path="url(#clip0-3)">
        <path
           style="fill:#bdd7ee;fill-rule:evenodd;stroke-width:0.93169421"
           d="m 604.54688,80.826172 c -7.69487,0 -13.9336,6.236778 -13.9336,13.93164 V 229.41016 c -48.44313,2.36429 -94.41551,14.1308 -136.13281,33.51367 l -47.98438,-83.11133 -8.14257,4.70117 -3.7461,-6.48633 -50.24219,29.00782 3.7461,6.48828 -8.14453,4.70117 48.61914,84.21094 c -31.75574,23.89082 -59.50293,52.8211 -82.05664,85.60351 l -83.38868,-45.01758 -45.62109,13.63086 -29.43359,54.52149 c -5.01811,9.29458 -1.55044,20.89791 7.74414,25.91601 l 101.24609,54.66211 c -5.5403,18.7955 -9.6151,38.21914 -12.09179,58.13867 l -78.9961,13.92969 1.63281,9.25977 -7.3789,1.30078 10.07422,57.13476 7.3789,-1.30078 1.63281,9.25977 64.25977,-11.33008 c 3.48201,39.56906 13.25346,77.33116 28.30273,112.28711 l -55.12695,38.59961 c -13.24962,9.27781 -16.46922,27.53851 -7.1914,40.78906 l 10,14.28125 c 9.27781,13.24963 27.53943,16.46922 40.78906,7.19141 l 48.90234,-34.24024 c 21.94233,31.02215 48.58224,58.48314 78.88477,81.35157 l -29.36914,72.69531 c -3.05334,7.54983 -0.0857,16.02905 6.63086,20.16406 -3.23281,13.81963 3.99078,28.31173 17.55859,33.79883 l 16.16602,6.5313 c 13.97468,5.6433 29.74401,-0.2703 36.73242,-13.2325 6.21948,-0.2958 12.00313,-4.1103 14.48828,-10.26364 l 24.66992,-61.0586 c 25.17893,9.87092 51.71562,17.0344 79.25195,21.13867 v 84.15627 l 31.67774,31.6777 h 17.94726 c 7.58306,0 13.73047,-6.1484 13.73047,-13.7324 V 962.09961 C 673.2381,960.782 725.77776,947.08427 772.60352,923.65625 l 29.62304,51.30664 8.14258,-4.70117 3.74609,6.49023 50.24415,-29.01367 -3.7461,-6.48828 8.14258,-4.70117 -31.36914,-54.33008 c 35.50167,-28.35173 65.61704,-63.16208 88.57226,-102.65039 l 59.61914,32.1875 45.62498,-13.63086 29.4317,-54.52148 c 5.0218,-9.29552 1.5561,-20.89791 -7.7422,-25.91602 l -85.38479,-46.09766 c 4.6885,-22.23916 7.3595,-45.22113 7.81641,-68.74609 l 67.41208,-11.88672 -1.6328,-9.26172 7.3731,-1.30078 -10.0723,-57.13281 -7.377,1.30078 -1.6328,-9.26172 -60.58981,10.6836 c -7.31817,-38.07955 -20.53286,-74.06001 -38.64844,-106.9629 l 61.80273,-43.27539 c 13.24872,-9.27781 16.47302,-27.53944 7.19336,-40.78906 l -10.00586,-14.28125 c -9.27035,-13.24962 -27.5318,-16.47117 -40.78515,-7.19336 l -61.56445,43.10742 c -22.00533,-25.57444 -47.47732,-48.07859 -75.68946,-66.7832 l 38.83789,-96.125 c 3.05272,-7.55704 0.0826,-16.03492 -6.63476,-20.16602 3.23575,-13.81945 -3.98687,-28.31484 -17.55664,-33.79687 l -16.16407,-6.5332 c -13.97555,-5.64596 -29.74671,0.26607 -36.73437,13.23242 -6.21948,0.29769 -12.00313,4.11233 -14.48828,10.26367 l -36.39844,90.08984 c -21.55033,-6.98791 -43.97532,-12.03322 -67.06836,-14.93164 V 112.96875 L 622.75781,80.826172 Z m 3.11914,348.501948 c 97.94342,0 177.34179,79.39838 177.34179,177.3418 0,97.94342 -79.39837,177.3418 -177.34179,177.3418 -97.94343,0 -177.3418,-79.39838 -177.3418,-177.3418 0,-97.94342 79.39837,-177.3418 177.3418,-177.3418 z"
           transform="matrix(1.0733135,0,0,1.0733135,-23.91386,42.248936)"
           id="path7567"
           inkscape:connector-curvature="0" />
      </g>
    </g>
  </g>
  <g
     inkscape:groupmode="layer"
     id="layer4"
     inkscape:label="City 1"
     style="display:inline">
    <g
       style="display:inline;overflow:hidden"
       id="g7509"
       transform="matrix(0.24651076,0,0,0.24651076,59.780054,32.277259)">
      <g
         id="g7461"
         transform="translate(-220,-173)"
         clip-path="url(#clip0-2)">
        <path
           style="fill:#9dc3e6;fill-rule:evenodd;stroke:#9dc3e6;stroke-width:0.93169421;stroke-miterlimit:8"
           d="m 647.42578,130.61914 -0.88672,10.13867 -7.10351,-0.62109 -10.69141,122.20312 c -11.72527,-1.31176 -23.6419,-1.99023 -35.7168,-1.99023 -6.02617,0 -12.01156,0.17276 -17.95507,0.50391 l -12.15625,-99.01172 -9.11133,-7.11914 -0.71289,-5.80469 -5.80469,0.71289 -6.85156,-5.35352 -9.21094,1.13086 -5.35352,6.85352 -6.03125,0.74023 0.74024,6.03125 -6.91992,8.85742 12.22851,99.58985 c -27.35817,5.88586 -53.41687,15.27307 -77.66601,27.70703 l -6.77149,-10.42773 -70.39062,45.71093 8.15234,12.55274 c -6.50835,5.91822 -12.75641,12.11512 -18.75586,18.54883 l -67.04297,-43.53907 -5.12109,7.88672 -6.28125,-4.08008 -31.59766,48.65625 6.28125,4.08008 -5.12109,7.88477 63.56055,41.27734 c -25.64543,45.93955 -40.28125,98.87867 -40.28125,155.25 0,31.16618 4.48889,61.27934 12.81836,89.74805 l -38.75586,20.60547 1.02148,1.91992 -17.99609,9.56836 1.56054,2.93554 -6.37109,3.38868 23.21094,43.65234 6.37109,-3.38867 1.5957,3 17.9961,-9.56836 1.32031,2.48437 32.96289,-17.52734 c 15.68984,30.20953 36.07153,57.57896 60.17578,81.15234 l -65.82812,70.59375 6.4414,6.00586 -8.91406,9.56055 22.5957,21.06445 8.91211,-9.55664 6.44336,6.00782 67.54688,-72.43555 c 33.62799,24.12269 72.13961,41.8459 113.76953,51.39062 l -10.47266,119.69336 5.91992,0.5176 -0.88671,10.1406 19.99218,1.752 0.88672,-10.1426 4.78711,0.4199 -0.88672,10.1406 19.99414,1.7422 0.88672,-10.1328 7.10352,0.6211 10.23633,-117.01172 c 4.55524,0.1938 9.13346,0.29883 13.73632,0.29883 13.74315,0 27.28251,-0.87349 40.56641,-2.56641 l 11.98047,97.57031 9.10937,7.11719 0.71289,5.8066 5.8086,-0.7128 6.84961,5.3515 9.21093,-1.1269 5.35352,-6.8536 6.03125,-0.7402 -0.74023,-6.03124 6.91992,-8.85742 -12.48828,-101.70313 c 26.09242,-7.62828 50.79483,-18.51202 73.64453,-32.18554 l 11.05273,17.01953 70.39063,-45.71289 -15.44336,-23.78125 c 4.76018,-4.93971 9.3587,-10.03464 13.79492,-15.27344 l 79.29492,51.49414 5.1211,-7.88477 6.28125,4.07813 31.5957,-48.65625 -6.27734,-4.07813 5.12304,-7.88867 -78.90234,-51.23828 c 21.22591,-42.70585 33.18359,-90.84467 33.18359,-141.78711 0,-28.50123 -3.7583,-56.11943 -10.76758,-82.4082 l 59.14063,-31.44531 -1.02149,-1.91993 17.99805,-9.56836 -1.5625,-2.9375 6.36914,-3.38671 -23.20703,-43.65235 -6.37305,3.38867 -1.5957,-3 -17.99609,9.56836 -1.32032,-2.48437 -52.04687,27.67383 c -14.01243,-28.59859 -32.17665,-54.78217 -53.70898,-77.76953 l 78.44531,-84.12305 -6.44141,-6.00781 8.91406,-9.5586 -22.59375,-21.06836 -8.91406,9.5586 -6.44336,-6.00782 -78.70312,84.40039 C 758.8911,304.26844 723.92266,285.76575 685.94727,274.16992 l 11.2832,-128.97656 -5.91602,-0.51758 0.88672,-10.13867 -19.99609,-1.74805 -0.88672,10.13672 -4.78516,-0.41797 0.88672,-10.13867 z m -55.36719,303.87109 c 85.00033,0 153.90625,69.00764 153.90625,154.13282 0,85.12424 -68.90592,154.13086 -153.90625,154.13086 -85.00032,0 -153.90625,-69.00662 -153.90625,-154.13086 0,-85.12518 68.90593,-154.13282 153.90625,-154.13282 z"
           id="path7387"
           transform="matrix(1.0733135,0,0,1.0733135,-22.504846,42.063488)"
           inkscape:connector-curvature="0" />
      </g>
    </g>
  </g>
  <g
     inkscape:groupmode="layer"
     id="layer2"
     inkscape:label="City 0"
     style="display:inline">
    <g
       style="display:inline;overflow:hidden"
       id="g6796"
       transform="matrix(0.24651076,0,0,0.24651076,60.01843,57.791101)">
      <g
         id="g6690"
         transform="translate(-240,-221)"
         clip-path="url(#clip0-5)">
        <path
           style="fill:#81b2df;fill-rule:evenodd;stroke:#81b2df;stroke-width:0.93169421;stroke-miterlimit:8"
           d="m 647.09766,220.01562 c -16.07558,-0.30788 -30.68001,7.09345 -40.07618,18.9375 l -10.20898,-0.71484 -0.21484,3.07227 -5.48828,-0.38477 -1.25977,18.02539 h -24.33789 v 42.15235 l -36.25195,4.45117 -12.08789,-42.15039 -5.5625,1.5957 -2.95313,-10.29883 5.03711,-1.44531 -1.96484,-6.85352 -5.03711,1.44532 -1.78125,-6.20899 -65.0293,18.64649 1.78125,6.20898 -5.03711,1.44531 1.96484,6.85157 5.03711,-1.44336 2.95313,10.29882 -4.51367,1.29493 8.79492,30.66992 -40.02735,23.11133 -16.73437,-16.73438 -1.22266,1.22266 -11.25,-11.25 -1.87109,1.87109 -3.98438,-3.98633 -27.80273,27.80274 3.98437,3.98437 -1.91015,1.91211 11.25195,11.25 -1.58203,1.58203 36.49805,36.49805 -23.11914,29.59375 -10.19532,-5.88672 -2.0957,3.63086 -12.70508,-7.33594 1.89844,-3.28711 -8.45312,-4.88086 -1.89844,3.28907 -7.6582,-4.42188 -24.50782,42.45117 7.65625,4.41993 -1.89843,3.28906 8.45507,4.88086 1.89844,-3.28907 12.70508,7.33594 -1.70117,2.94532 23.59961,13.625 c -2.96525,7.64955 -5.60212,15.46371 -7.8711,23.43359 -37.01062,-12.91941 -74.02078,-25.83907 -111.03125,-38.75781 l -1.29492,53.36718 77.75195,26.77344 h -26.94726 v 12.11133 h -38.19922 v 1.86328 h -15.83984 v 2.79492 h -5.58985 v 40.99414 h 5.58985 v 2.79493 h 15.83984 v 1.86523 h 19.56055 l -3.32422,0.89062 2.43359,9.08204 -5.02734,1.34765 15.01367,56.04102 5.0293,-1.34766 2.43359,9.08203 67.60156,-18.11523 c 1.71228,5.03992 3.58085,10.00565 5.57813,14.90625 l -46.35742,30.10547 26.48632,40.78515 16.44727,-10.68164 6.125,10.60938 -32.92969,28.625 31.90625,36.70312 26.13867,-22.72265 32.92383,27.62695 1.52344,-1.81641 -16.01758,37.73633 2.05859,0.87305 -6.21679,14.64648 2.48633,1.05469 -2.20118,5.1875 36.19336,15.36328 2.20118,-5.18555 2.43554,1.03321 6.2168,-14.64844 1.5918,0.67578 26.61328,-62.69726 c 3.28974,1.84879 6.6168,3.6373 9.99023,5.34961 l -8.33984,47.30273 22.55469,3.97656 -2.5254,36.1211 3.76563,0.26367 -0.21484,3.07226 14.39843,1.00782 c 8.06271,13.72583 22.53023,23.37768 39.60938,24.57226 17.07962,1.19404 32.74619,-6.35151 42.64062,-18.82226 l 10.21094,0.71484 0.21484,-3.07227 5.48829,0.38282 1.20312,-17.20508 h 25.39063 v -43.09571 l 35.25781,-4.33007 12.08789,42.15429 5.5625,-1.5957 2.95312,10.29883 -5.03906,1.44531 1.96485,6.85156 5.03906,-1.44531 1.77929,6.20899 65.0293,-18.64649 -1.7793,-6.20703 5.03711,-1.44531 -1.96484,-6.85352 -5.03711,1.44531 -2.95312,-10.29882 4.51172,-1.29493 -8.79493,-30.66992 40.0293,-23.11133 16.73242,16.73243 1.22266,-1.22266 11.25195,11.25195 1.8711,-1.86914 3.98242,3.98242 27.80273,-27.80273 -3.98437,-3.98437 1.91015,-1.90821 -11.25195,-11.25195 1.58203,-1.58203 -36.49805,-36.49805 23.1211,-29.59375 10.19336,5.88477 2.0957,-3.63086 12.70703,7.33593 -1.89844,3.28907 8.45313,4.88086 1.89844,-3.28907 7.6582,4.42188 24.50781,-42.45117 -7.6582,-4.42188 1.89844,-3.28711 -8.45313,-4.88086 -1.89844,3.28907 -12.70507,-7.33594 1.70117,-2.94531 -14.50586,-8.375 c 3.37745,-8.18431 6.36183,-16.57143 8.93359,-25.13868 33.62469,11.73734 67.24859,23.4741 100.87305,35.21094 l 1.29687,-53.36719 -13.65625,-4.70117 3.08204,-35.22656 h 14.80273 v -2.79492 h 5.58984 v -40.99414 h -5.58984 v -2.79493 h -15.83789 v -1.86328 h -23.6211 l 6.38477,-1.71093 -2.43359,-9.08203 5.0332,-1.34766 -15.01758,-56.04102 -5.0293,1.34766 -2.43359,-9.08203 -57.28711,15.34961 c -2.13348,-6.06924 -4.47682,-12.03924 -7.02344,-17.90039 l 37.48829,-24.34571 -26.48633,-40.78515 -16.44727,10.67969 -6.125,-10.60743 32.92969,-28.625 -31.9043,-36.70312 -26.14062,22.72461 -32.92383,-27.62891 -1.52344,1.81445 16.01758,-37.73242 -2.05859,-0.875 6.21679,-14.64648 -2.48633,-1.05469 2.20118,-5.1875 -36.19336,-15.36328 -2.20117,5.18555 -2.4336,-1.03321 -6.21875,14.64844 -1.5918,-0.67578 -24.48046,57.67383 c -3.69278,-1.89142 -7.43543,-3.69901 -11.22461,-5.42188 l 7.4414,-42.20703 -22.55273,-3.97656 2.52539,-36.12109 -3.76563,-0.26368 0.21485,-3.07226 -14.39844,-1.00782 c -8.06243,-13.72706 -22.52927,-23.37761 -39.60937,-24.57226 -0.86002,-0.0601 -1.71604,-0.0989 -2.56836,-0.11524 z m -39.08008,234.53711 c 71.8094,0 130.02148,58.31371 130.02148,130.2461 0,71.93331 -58.21208,130.24609 -130.02148,130.24609 -71.80847,0 -130.02149,-58.31278 -130.02149,-130.24609 0,-71.93239 58.21302,-130.2461 130.02149,-130.2461 z"
           transform="matrix(1.0733135,0,0,1.0733135,-3.4718468,-13.436424)"
           id="path6500"
           inkscape:connector-curvature="0" />
      </g>
    </g>
  </g>
  <g
     inkscape:label="Layer 1"
     inkscape:groupmode="layer"
     id="layer1"
     transform="translate(85.365921,-133.12847)"
     style="display:inline">
    <g
       style="overflow:hidden"
       id="g4728"
       transform="matrix(0.23839157,0,0,0.23839157,-97.75328,135.47888)">
      <g
         id="g4537"
         transform="translate(107.9013,-25)"
         clip-path="url(#clip0)">
        <path
           id="path4481"
           d="m -113.21784,537.25595 c 160.805599,-69.166 1258.63004,-97.138 1488.00004,-10.68 l -45.71,368.0981 H -61.415041 Z"
           inkscape:connector-curvature="0"
           style="fill:#92d050;fill-rule:evenodd" />
        <path
           id="path4483"
           d="m -113.21856,543.88517 c 160.805619,-68.968 1258.63076,-96.859 1488.00076,-10.65 l -12.19,58.21 c -459.4328,-40.062 -915.8188,-49.697 -1465.14574,3.043 z"
           inkscape:connector-curvature="0"
           style="fill:#a6a6a6;fill-rule:evenodd" />
        <g
           id="g7779"
           transform="translate(5.4920815,9.3546077)">
          <path
             style="fill:#07485e;fill-rule:evenodd"
             inkscape:connector-curvature="0"
             d="m 455.24861,310.34432 -10.10601,52.3066 -51.27,13.69689 c -5.863,1.565 -9.806,6.698 -9.806,12.772 l -10e-6,90.395 c 0,7.279 5.937,13.219 13.213,13.219 l 422.5735,4e-5 c 7.2762,0 13.2135,-5.94 13.2135,-13.219 l 2e-5,-170.6622 c 0,-3.6377 -1.29846,-6.7724 -3.87312,-9.3445 l -23.88868,-23.90352 c -2.5746,-2.57174 -5.7043,-3.87078 -9.344,-3.87078 l -293.6552,-3e-5 c -23.245,0 -43.228,15.3918 -47.057,38.6105 z"
             id="path4485" />
          <path
             style="fill:#ffffff;fill-rule:evenodd"
             inkscape:connector-curvature="0"
             d="m 796.20631,284.73385 -206.8667,-2e-5 h -42.911 l -43.479,-1e-5 c -17.451,0 -31.393,11.4058 -34.001,27.7704 l -11.69601,60.7627 -59.186,15.86789 -10e-6,90.599 39.449,10e-6 151.824,1e-5 230.727,2e-5 10e-6,-41.742 v -48.857 l 10e-6,-80.4473 z m -311.98271,74.63897 23.159,-13.6422 6.39401,-37.0431 h -10.827 c -5.645,0 -9.749,3.0152 -10.454,7.6779 z"
             id="path4487" />
          <path
             style="fill:#b0d3f0;fill-rule:evenodd"
             inkscape:connector-curvature="0"
             d="m 589.06661,308.73385 -10e-6,62.0005 -107,-1e-5 10.53441,-54.40635 c 0.703,-4.61144 4.7911,-7.59415 10.4134,-7.59415 z"
             id="path4489" />
          <path
             style="fill:#e6e6e6;fill-rule:evenodd"
             inkscape:connector-curvature="0"
             d="m 589.06661,287.73385 h -22 l -10e-6,103 h 22 z"
             id="path4499" />
          <path
             style="fill:#b0d3f0;fill-rule:evenodd"
             inkscape:connector-curvature="0"
             d="m 672.06661,308.73385 -88.0005,-1e-5 -10e-6,62.0005 88.0005,1e-5 z"
             id="path4501" />
          <path
             style="fill:#e8a824;fill-rule:evenodd"
             inkscape:connector-curvature="0"
             d="m 819.83588,382.70082 -298,-3e-5 v 42.0005 l 298,3e-5 z"
             id="path4503" />
          <path
             style="fill:#e8a824;fill-rule:evenodd"
             inkscape:connector-curvature="0"
             d="m 566.06661,382.73385 -143.724,-1e-5 -24.276,6.50145 v 35.49905 l 168,1e-5 z"
             id="path4505" />
          <path
             style="fill:#fffce5;fill-rule:evenodd"
             inkscape:connector-curvature="0"
             d="m 428.06661,390.73385 h -30.0004 v 25 h 30.0004 z"
             id="path4507" />
          <path
             style="fill:#ffffff;fill-rule:evenodd"
             inkscape:connector-curvature="0"
             d="m 556.23402,330.73385 c -0.7276,0 -1.45163,-0.2787 -2.00189,-0.829 l -11.33482,-11.33602 c -1.1076,-1.10773 -1.1076,-2.89601 0,-4.00418 1.1076,-1.10773 2.8997,-1.10773 4.0073,0 l 11.33129,11.3324 c 1.10761,1.1078 1.10761,2.9001 0,4.0078 -0.55381,0.5503 -1.27784,0.829 -2.00188,0.829 z"
             id="path4509" />
          <path
             style="fill:#ffffff;fill-rule:evenodd"
             inkscape:connector-curvature="0"
             d="m 556.31758,345.73435 c -0.70613,0 -1.40881,-0.2956 -1.94282,-0.882 l -5.50195,-5.99931 c -1.0754,-1.17284 -1.0754,-3.06624 0,-4.23956 1.07494,-1.17284 2.81417,-1.17284 3.88911,0 l 5.49849,5.9993 c 1.07493,1.17284 1.07493,3.07048 0,4.23957 -0.53747,0.5864 -1.24015,0.882 -1.94283,0.882 z"
             id="path4511" />
          <path
             style="fill:#ffffff;fill-rule:evenodd"
             inkscape:connector-curvature="0"
             d="m 547.19622,328.56962 c 0.54464,0.57106 0.87039,1.36185 0.87039,2.14458 0,0.78273 -0.32575,1.56973 -0.87039,2.11333 -0.56724,0.57107 -1.31477,0.90632 -2.12773,0.90632 -0.78236,0 -1.56049,-0.33525 -2.13196,-0.87507 -0.5404,-0.57485 -0.87039,-1.36185 -0.87039,-2.14458 0,-0.78273 0.32999,-1.57352 0.87039,-2.14458 1.10811,-1.1142 3.15158,-1.1142 4.25969,0 z"
             id="path4513" />
          <path
             style="fill:#ffffff;fill-rule:evenodd"
             inkscape:connector-curvature="0"
             d="m 541.18697,326.91495 c -0.5869,0.5474 -1.35311,0.8193 -2.1198,0.8193 -0.77044,0 -1.5376,-0.2719 -2.12403,-0.8193 l -8.99693,-8.4024 c -1.1728,-1.09484 -1.1728,-2.8623 0,-3.95758 1.1734,-1.09483 3.0668,-1.09483 4.23963,10e-6 l 9.00113,8.40193 c 1.17285,1.09524 1.17285,2.86274 0,3.95804 z"
             id="path4515" />
          <path
             style="fill:#ffffff;fill-rule:evenodd"
             inkscape:connector-curvature="0"
             d="m 532.03111,328.58685 26.18245,26.181 c 1.1374,1.1373 1.1374,2.9738 0,4.1112 -0.5687,0.5686 -1.3122,0.8548 -2.05571,0.8548 -0.74716,0 -1.49066,-0.2862 -2.05571,-0.8548 l -26.18253,-26.18056 c -1.1373,-1.13778 -1.1373,-2.97385 0,-4.11164 1.1374,-1.13734 2.9741,-1.13734 4.1115,0 z"
             id="path4517" />
          <path
             style="fill:#ffffff;fill-rule:evenodd"
             inkscape:connector-curvature="0"
             d="m 522.79154,323.43076 c 0.92657,-0.92908 2.62632,-0.92908 3.54974,0 0.45387,0.47619 0.72533,1.13204 0.72533,1.78828 0,0.65269 -0.27146,1.30893 -0.72533,1.78828 -0.47269,0.45013 -1.12466,0.72653 -1.7731,0.72653 -0.65197,0 -1.30041,-0.2764 -1.77664,-0.72653 -0.45033,-0.47935 -0.72532,-1.13559 -0.72532,-1.78828 0,-0.65624 0.27499,-1.31209 0.72532,-1.78828 z"
             id="path4519" />
          <path
             style="fill:#b0d3f0;fill-rule:evenodd"
             inkscape:connector-curvature="0"
             d="m 792.09541,308.73385 -102.0288,-1e-5 -10e-6,62.0005 117,1e-5 10e-6,-47.1608 c 0,-8.16261 -6.73426,-14.8397 -14.9712,-14.8397 z"
             id="path4521" />
          <path
             style="fill:#ffffff;fill-rule:evenodd"
             inkscape:connector-curvature="0"
             d="m 798.23402,330.73385 c -0.7276,0 -1.45163,-0.2787 -2.00589,-0.829 l -11.33082,-11.33602 c -1.1076,-1.10773 -1.1076,-2.89601 0,-4.00418 1.1076,-1.10773 2.8997,-1.10773 4.0073,0 l 11.33129,11.3324 c 1.10761,1.1078 1.10761,2.9001 0,4.0078 -0.55381,0.5503 -1.27784,0.829 -2.00188,0.829 z"
             id="path4523" />
          <path
             style="fill:#ffffff;fill-rule:evenodd"
             inkscape:connector-curvature="0"
             d="m 798.06767,345.73435 c -0.77032,0 -1.53688,-0.2956 -2.12368,-0.882 l -5.99788,-5.99931 c -1.1731,-1.17284 -1.1731,-3.06624 0,-4.23956 1.17265,-1.17284 3.06999,-1.17284 4.24265,0 l 5.99835,5.9993 c 1.17266,1.17284 1.17266,3.07048 0,4.23957 -0.58632,0.5864 -1.35288,0.882 -2.11944,0.882 z"
             id="path4525" />
          <path
             style="fill:#ffffff;fill-rule:evenodd"
             inkscape:connector-curvature="0"
             d="m 788.34128,328.56962 c 0.45387,0.57106 0.72533,1.36185 0.72533,2.14458 0,0.78273 -0.27146,1.56973 -0.72533,2.11333 -0.47269,0.57107 -1.09916,0.90632 -1.77624,0.90632 -0.64883,0 -1.30041,-0.33525 -1.7735,-0.87507 -0.45033,-0.57485 -0.72532,-1.36185 -0.72532,-2.14458 0,-0.78273 0.27499,-1.57352 0.72532,-2.14458 0.92343,-1.1142 2.62318,-1.1142 3.54974,0 z"
             id="path4527" />
          <path
             style="fill:#ffffff;fill-rule:evenodd"
             inkscape:connector-curvature="0"
             d="m 783.1865,326.91495 c -0.58266,0.5474 -1.34935,0.8193 -2.1198,0.8193 -0.76668,0 -1.53336,-0.2719 -2.11979,-0.8193 l -9.0011,-8.4024 c -1.1729,-1.09484 -1.1729,-2.8623 0,-3.95758 1.1733,-1.09483 3.0705,-1.09483 4.2438,10e-6 l 9.00065,8.40193 c 1.16909,1.09524 1.16909,2.86274 -0.004,3.95804 z"
             id="path4529" />
          <path
             style="fill:#ffffff;fill-rule:evenodd"
             inkscape:connector-curvature="0"
             d="m 774.03421,328.58685 26.17945,26.181 c 1.13726,1.1373 1.13726,2.9738 0,4.1112 -0.56863,0.5686 -1.31205,0.8548 -2.05548,0.8548 -0.74707,0 -1.49049,-0.2862 -2.05958,-0.8548 l -26.17899,-26.18056 c -1.1373,-1.13778 -1.1373,-2.97385 0,-4.11164 1.1372,-1.13734 2.9773,-1.13734 4.1146,0 z"
             id="path4531" />
          <path
             style="fill:#ffffff;fill-rule:evenodd"
             inkscape:connector-curvature="0"
             d="m 763.93653,323.43076 c 1.11188,-0.92908 3.15158,-0.92908 4.25969,0 0.54464,0.47619 0.87039,1.13204 0.87039,1.78828 0,0.65269 -0.32575,1.30893 -0.87039,1.78828 -0.56724,0.45013 -1.3496,0.72653 -2.13149,0.72653 -0.7786,0 -1.55673,-0.2764 -2.1282,-0.72653 -0.5404,-0.47935 -0.87039,-1.13559 -0.87039,-1.78828 0,-0.65624 0.32999,-1.31209 0.87039,-1.78828 z"
             id="path4533" />
          <path
             style="fill-rule:evenodd"
             inkscape:connector-curvature="0"
             d="m 566.03361,395.42185 h -12.443 v 6.663 h 11.46 c 0.842,0 1.472,0.187 1.884,0.559 0.419,0.372 0.623,0.873 0.623,1.484 0,0.612 -0.204,1.116 -0.608,1.499 -0.415,0.387 -1.042,0.582 -1.899,0.582 h -11.46 v 7.719 h 12.869 c 0.872,0 1.524,0.203 1.961,0.6 0.445,0.395 0.668,0.932 0.668,1.595 0,0.637 -0.223,1.16 -0.668,1.558 -0.437,0.398 -1.089,0.597 -1.961,0.597 h -15.008 c -1.201,0 -2.065,-0.266 -2.592,-0.792 -0.526,-0.53 -0.793,-1.389 -0.793,-2.567 v -20.37 c 0,-0.788 0.122,-1.432 0.356,-1.93 0.233,-0.5 0.6,-0.865 1.105,-1.093 0.5,-0.225 1.142,-0.339 1.924,-0.339 h 14.582 c 0.882,0 1.535,0.195 1.961,0.582 0.426,0.39 0.642,0.898 0.642,1.525 0,0.644 -0.216,1.159 -0.642,1.55 -0.426,0.387 -1.079,0.578 -1.961,0.578 z m 32.875,14.735 c 0,1.631 -0.427,3.101 -1.276,4.409 -0.845,1.303 -2.091,2.327 -3.726,3.063 -1.639,0.737 -3.581,1.105 -5.824,1.105 -2.692,0 -4.913,-0.504 -6.659,-1.51 -1.238,-0.725 -2.243,-1.694 -3.014,-2.905 -0.775,-1.212 -1.165,-2.39 -1.165,-3.539 0,-0.66 0.238,-1.231 0.701,-1.71 0.464,-0.471 1.053,-0.703 1.769,-0.703 0.586,0 1.075,0.181 1.475,0.553 0.404,0.368 0.746,0.917 1.031,1.646 0.345,0.858 0.727,1.584 1.127,2.158 0.405,0.578 0.972,1.061 1.702,1.436 0.734,0.372 1.695,0.564 2.888,0.564 1.632,0 2.963,-0.38 3.986,-1.138 1.023,-0.755 1.538,-1.702 1.538,-2.836 0,-0.902 -0.274,-1.635 -0.826,-2.188 -0.553,-0.563 -1.272,-0.99 -2.147,-1.288 -0.871,-0.295 -2.043,-0.612 -3.504,-0.947 -1.957,-0.453 -3.6,-0.987 -4.916,-1.595 -1.32,-0.611 -2.365,-1.443 -3.14,-2.496 -0.775,-1.054 -1.164,-2.358 -1.164,-3.93 0,-1.488 0.407,-2.814 1.227,-3.974 0.819,-1.153 2.006,-2.04 3.555,-2.666 1.55,-0.623 3.37,-0.932 5.465,-0.932 1.669,0 3.118,0.206 4.346,0.615 1.22,0.42 2.232,0.965 3.04,1.646 0.801,0.682 1.39,1.403 1.765,2.151 0.367,0.751 0.556,1.488 0.556,2.202 0,0.649 -0.234,1.241 -0.697,1.765 -0.464,0.526 -1.046,0.784 -1.739,0.784 -0.634,0 -1.112,-0.159 -1.442,-0.468 -0.33,-0.316 -0.686,-0.832 -1.065,-1.547 -0.503,-1.02 -1.093,-1.819 -1.79,-2.394 -0.694,-0.574 -1.81,-0.858 -3.352,-0.858 -1.423,0 -2.58,0.31 -3.448,0.932 -0.879,0.626 -1.316,1.37 -1.316,2.247 0,0.541 0.145,1.009 0.445,1.407 0.296,0.39 0.712,0.733 1.231,1.016 0.523,0.284 1.049,0.505 1.583,0.667 0.534,0.158 1.416,0.39 2.64,0.7 1.535,0.36 2.932,0.751 4.178,1.185 1.246,0.427 2.303,0.954 3.181,1.569 0.875,0.611 1.554,1.396 2.043,2.335 0.489,0.946 0.738,2.099 0.738,3.469 z m 32.637,-0.435 c 0,0.862 -0.207,1.798 -0.641,2.799 -0.426,1.002 -1.097,1.985 -2.017,2.95 -0.915,0.973 -2.091,1.753 -3.511,2.361 -1.431,0.597 -3.092,0.902 -4.99,0.902 -1.435,0 -2.744,-0.132 -3.923,-0.405 -1.175,-0.269 -2.25,-0.692 -3.207,-1.267 -0.96,-0.567 -1.85,-1.325 -2.654,-2.257 -0.72,-0.851 -1.335,-1.798 -1.843,-2.851 -0.508,-1.053 -0.89,-2.18 -1.142,-3.373 -0.252,-1.201 -0.382,-2.468 -0.382,-3.812 0,-2.173 0.319,-4.128 0.96,-5.852 0.634,-1.727 1.558,-3.204 2.744,-4.426 1.194,-1.223 2.584,-2.159 4.182,-2.799 1.602,-0.637 3.307,-0.958 5.117,-0.958 2.209,0 4.171,0.435 5.898,1.311 1.72,0.869 3.041,1.956 3.964,3.241 0.912,1.285 1.375,2.497 1.375,3.646 0,0.63 -0.226,1.178 -0.671,1.665 -0.445,0.478 -0.986,0.718 -1.62,0.718 -0.704,0 -1.238,-0.17 -1.587,-0.497 -0.356,-0.335 -0.749,-0.91 -1.179,-1.724 -0.727,-1.341 -1.568,-2.346 -2.54,-3.012 -0.979,-0.664 -2.172,-0.999 -3.6,-0.999 -2.273,0 -4.078,0.859 -5.424,2.567 -1.345,1.717 -2.021,4.151 -2.021,7.304 0,2.106 0.301,3.859 0.898,5.258 0.589,1.404 1.434,2.442 2.528,3.135 1.09,0.688 2.366,1.035 3.834,1.035 1.587,0 2.925,-0.391 4.023,-1.172 1.101,-0.784 1.927,-1.93 2.484,-3.45 0.237,-0.715 0.526,-1.293 0.875,-1.75 0.345,-0.446 0.904,-0.674 1.672,-0.674 0.66,0 1.224,0.228 1.694,0.689 0.471,0.453 0.704,1.02 0.704,1.697 z m 21.664,-18.988 c 2.833,0 5.258,0.567 7.282,1.709 2.024,1.134 3.563,2.755 4.601,4.854 1.042,2.099 1.564,4.566 1.564,7.398 0,2.092 -0.285,4 -0.86,5.709 -0.571,1.712 -1.42,3.197 -2.562,4.452 -1.145,1.252 -2.54,2.214 -4.204,2.88 -1.661,0.663 -3.563,0.998 -5.71,0.998 -2.132,0 -4.041,-0.342 -5.724,-1.027 -1.687,-0.682 -3.092,-1.646 -4.223,-2.891 -1.131,-1.241 -1.98,-2.736 -2.558,-4.489 -0.579,-1.746 -0.864,-3.639 -0.864,-5.668 0,-2.081 0.3,-3.985 0.901,-5.727 0.604,-1.735 1.475,-3.212 2.617,-4.434 1.135,-1.219 2.525,-2.151 4.164,-2.795 1.631,-0.648 3.492,-0.969 5.576,-0.969 z m 7.845,13.925 c 0,-1.982 -0.322,-3.705 -0.964,-5.16 -0.648,-1.451 -1.568,-2.548 -2.762,-3.3 -1.194,-0.744 -2.569,-1.116 -4.119,-1.116 -1.098,0 -2.121,0.21 -3.055,0.619 -0.938,0.416 -1.747,1.016 -2.418,1.805 -0.674,0.788 -1.208,1.797 -1.601,3.019 -0.386,1.231 -0.586,2.604 -0.586,4.133 0,1.543 0.2,2.931 0.586,4.179 0.393,1.242 0.945,2.277 1.657,3.098 0.712,0.817 1.531,1.429 2.451,1.834 0.927,0.408 1.935,0.612 3.04,0.612 1.416,0 2.714,-0.354 3.9,-1.054 1.179,-0.7 2.121,-1.782 2.826,-3.252 0.697,-1.466 1.045,-3.274 1.045,-5.417 z m 20.443,-10.603 v 19.721 h 11.201 c 0.886,0 1.576,0.214 2.05,0.641 0.482,0.438 0.716,0.98 0.716,1.628 0,0.663 -0.234,1.204 -0.701,1.617 -0.47,0.409 -1.164,0.615 -2.065,0.615 h -13.34 c -1.197,0 -2.061,-0.266 -2.587,-0.792 -0.531,-0.53 -0.797,-1.389 -0.797,-2.567 v -20.863 c 0,-1.105 0.255,-1.937 0.756,-2.49 0.504,-0.556 1.164,-0.832 1.98,-0.832 0.826,0 1.501,0.269 2.013,0.818 0.515,0.548 0.774,1.388 0.774,2.504 z m 39.264,21.15 -1.302,-3.399 h -11.085 l -1.302,3.469 c -0.508,1.355 -0.941,2.272 -1.301,2.744 -0.356,0.471 -0.945,0.714 -1.765,0.714 -0.693,0 -1.308,-0.254 -1.842,-0.758 -0.534,-0.505 -0.797,-1.08 -0.797,-1.713 0,-0.375 0.062,-0.758 0.181,-1.149 0.126,-0.397 0.33,-0.943 0.616,-1.646 l 6.97,-17.585 c 0.204,-0.501 0.441,-1.109 0.719,-1.813 0.278,-0.714 0.578,-1.299 0.894,-1.767 0.319,-0.468 0.73,-0.843 1.245,-1.134 0.516,-0.291 1.15,-0.435 1.906,-0.435 0.775,0 1.416,0.144 1.928,0.435 0.515,0.291 0.927,0.662 1.246,1.115 0.315,0.454 0.582,0.947 0.801,1.47 0.215,0.523 0.493,1.223 0.823,2.092 l 7.126,17.478 c 0.556,1.33 0.837,2.295 0.837,2.899 0,0.626 -0.263,1.204 -0.789,1.727 -0.527,0.523 -1.168,0.784 -1.91,0.784 -0.433,0 -0.808,-0.077 -1.119,-0.236 -0.304,-0.15 -0.564,-0.357 -0.779,-0.622 -0.211,-0.265 -0.43,-0.674 -0.675,-1.219 -0.248,-0.549 -0.448,-1.031 -0.626,-1.451 z m -10.934,-7.524 h 8.146 l -4.108,-11.159 z m 33.009,-0.983 h -1.936 v 8.691 c 0,1.149 -0.256,1.985 -0.764,2.531 -0.507,0.541 -1.175,0.813 -1.987,0.813 -0.882,0 -1.568,-0.284 -2.05,-0.854 -0.482,-0.567 -0.723,-1.392 -0.723,-2.49 v -20.841 c 0,-1.182 0.267,-2.04 0.797,-2.567 0.534,-0.53 1.398,-0.795 2.584,-0.795 h 8.987 c 1.235,0 2.295,0.048 3.178,0.158 0.882,0.107 1.676,0.313 2.384,0.637 0.856,0.358 1.609,0.869 2.269,1.532 0.656,0.667 1.157,1.444 1.494,2.321 0.341,0.883 0.515,1.815 0.515,2.806 0,2.018 -0.57,3.631 -1.72,4.843 -1.149,1.204 -2.888,2.062 -5.22,2.567 0.979,0.515 1.917,1.281 2.814,2.291 0.886,1.009 1.687,2.084 2.384,3.222 0.7,1.141 1.245,2.162 1.639,3.082 0.389,0.914 0.585,1.544 0.585,1.893 0,0.354 -0.115,0.707 -0.345,1.061 -0.225,0.35 -0.537,0.63 -0.937,0.829 -0.394,0.202 -0.857,0.305 -1.38,0.305 -0.615,0 -1.134,-0.147 -1.56,-0.438 -0.419,-0.287 -0.783,-0.652 -1.087,-1.094 -0.304,-0.442 -0.716,-1.097 -1.238,-1.956 l -2.214,-3.66 c -0.793,-1.333 -1.505,-2.357 -2.128,-3.057 -0.63,-0.707 -1.264,-1.185 -1.909,-1.444 -0.641,-0.257 -1.457,-0.386 -2.432,-0.386 z m 3.162,-11.387 h -5.098 v 7.454 h 4.942 c 1.328,0 2.448,-0.114 3.356,-0.343 0.901,-0.224 1.591,-0.615 2.069,-1.164 0.474,-0.548 0.715,-1.307 0.715,-2.265 0,-0.758 -0.189,-1.417 -0.578,-1.992 -0.378,-0.574 -0.912,-1.005 -1.598,-1.289 -0.641,-0.269 -1.91,-0.401 -3.808,-0.401 z"
             id="path4535" />
        </g>
        <g
           id="g7783"
           transform="translate(4.75658,9.1960546)">
          <path
             style="fill:#a2abb8;fill-rule:evenodd"
             inkscape:connector-curvature="0"
             d="m 702.06661,479.23594 c 0,-19.611 15.671,-35.50209 34.998,-35.50209 19.3306,0 35.002,15.8911 35.002,35.5021 0,19.6067 -15.67141,35.4979 -35.00201,35.4979 -19.327,0 -34.99799,-15.89121 -34.99799,-35.49791 z"
             id="path4495" />
          <path
             style="fill:#04303e;fill-rule:evenodd"
             inkscape:connector-curvature="0"
             d="m 736.5648,525.73435 c 25.6423,0 46.5018,-20.8595 46.50181,-46.4987 0,-25.6423 -20.8595,-46.5018 -46.5018,-46.5018 -25.6392,-1e-5 -46.4987,20.85949 -46.4987,46.50179 -10e-6,25.6392 20.85949,46.4987 46.49869,46.49871 z m 10e-6,-70.4663 c 13.2165,0 23.9676,10.7511 23.9676,23.9676 -10e-6,13.2133 -10.75111,23.964 -23.96761,23.964 -13.2133,-1e-5 -23.964,-10.75071 -23.96399,-23.96401 0,-13.2165 10.7507,-23.9676 23.964,-23.96759 z"
             id="path4497" />
        </g>
        <g
           style="overflow:hidden"
           id="g5640"
           transform="matrix(1.1098687,0,0,1.1098687,-668.41752,400.92167)" />
        <g
           id="g7787"
           transform="translate(4.75658,9.1960546)">
          <path
             style="fill:#a2abb8;fill-rule:evenodd"
             inkscape:connector-curvature="0"
             d="m 446.06661,479.23594 c 0,-19.611 15.671,-35.50209 35.0016,-35.50209 19.3274,0 34.9984,15.8911 34.9984,35.5021 0,19.6067 -15.67101,35.4979 -34.99841,35.4979 -19.3306,0 -35.00159,-15.89121 -35.00159,-35.49791 z"
             id="path4491" />
          <path
             style="fill:#04303e;fill-rule:evenodd"
             inkscape:connector-curvature="0"
             d="m 481.0684,525.73435 c 25.363,0 45.9982,-20.8595 45.99821,-46.4987 0,-25.6423 -20.6352,-46.5018 -45.9982,-46.5018 -25.3671,-1e-5 -46.0023,20.85949 -46.0023,46.50179 -10e-6,25.6392 20.63519,46.4987 46.00229,46.49871 z m 10e-6,-70.4663 c 13.0708,0 23.7063,10.7511 23.7063,23.9676 -1e-5,13.2133 -10.63551,23.964 -23.70631,23.964 -13.0748,-1e-5 -23.7099,-10.75071 -23.70989,-23.96401 0,-13.2165 10.6351,-23.9676 23.7099,-23.96759 z"
             id="path4493" />
             <path style="transform: scale(3.5)" d="M 81.8 32.8 C 80.6 28.8 78 25.4 74.4 23.3 C 74.4 23 74.4 22.7 74.4 22.4 C 74.5 15.6 68.9 10 62 10 C 59.9 10 58 10.5 56.3 11.4 C 54 8.1 50.3 6 46 6 C 40.5 6 35.8 9.6 34.1 14.6 C 32.3 13.6 30.2 13 28 13 C 21.1 13 15.5 18.6 15.5 25.5 C 15.5 28.1 16.3 30.5 17.7 32.5 C 11.2 34.2 6.5 40 6.5 47 C 6.5 55.3 13.2 62 21.5 62 C 22.7 62 23.9 61.8 25.1 61.6 C 29.9 63.8 40.5 70.2 41 77.5 L 40.6 87 C 40.6 87.5 40.4 88 40 88.4 L 39.1 89.3 C 38.5 90 38.9 91 39.8 91 L 50.8 91 C 51.6 91 52 90.2 51.7 89.5 C 51.7 89.5 51.2 88.5 50.9 88.2 C 50.6 87.8 50.3 87.4 50.3 86.8 L 49.9 74.7 C 49.9 74.6 50 74.5 50 74.5 C 50.8 70.9 55.6 68.5 60.7 66 C 65.8 63.5 71.8 60.5 73.7 55.3 C 74.9 55.7 76.2 56 77.6 56 C 84.2 56 89.6 50.6 89.6 44 C 89.5 38.9 86.3 34.5 81.8 32.8 Z M 45.8 63.3 C 45.5 60.8 44.9 57.8 43.7 54.9 C 46.2 54.6 48.5 53.8 50.5 52.6 C 48.4 56.2 46.8 60.1 45.8 63.3 Z M 30.7 58.8 C 32.5 57.4 34 55.5 35.1 53.4 C 36 53.8 36.9 54.2 37.9 54.4 C 40.5 58.7 41 63.6 41 66.7 C 37.8 63.3 33.7 60.6 30.7 58.8 Z M 58.4 61.5 C 55.5 62.9 52.5 64.4 50.1 66.2 C 51.4 62.1 53.7 55.9 57.3 51.4 C 59.8 53 62.8 53.9 66 53.9 C 67 53.9 67.9 53.8 68.8 53.6 C 67.7 56.7 63.8 58.8 58.4 61.5 Z" 
fill="#92d050"/>
            <g id="demand">
               <path style="transform: scale(1.1)" d="M -129.5 533.6 C -132.7 530.7 -136.9 528.8 -141.4 528.8 C -142 528.8 -142.6 528.8 -143.2 529 C -142.8 523.1 -143.8 517.2 -144.9 511 C -144.6 510.3 -143.8 509.5 -142.7 508.8 C -140.7 513 -136.5 516 -131.5 516 C -129.3 516 -127.2 515.4 -125.4 514.4 L -125.4 514.4 C -116 509.2 -114.8 499.6 -114.8 488.8 C -114.8 488.8 -125 491.6 -131.4 491.4 C -138.2 491.4 -143.6 496.9 -143.6 503.6 C -143.6 503.8 -143.6 503.8 -143.6 503.9 C -144.3 504.2 -145 504.7 -145.7 505.3 C -147.1 496.6 -147.9 487.8 -145.2 478.1 C -144 477.6 -142.6 477.3 -141.3 477.1 C -141.2 478.8 -140.4 480.3 -139 481.4 C -138 482.1 -137.1 482.4 -136.1 482.5 L -136.1 482.5 C -130.8 483.3 -127.4 479.8 -124.2 475.5 C -124.2 475.5 -129.1 473.5 -131.6 471.6 C -134.2 469.6 -137.7 470 -139.8 472.3 C -140.9 472.3 -142.2 472.4 -143.4 472.6 C -142 469.3 -140.1 465.9 -137.8 462.4 C -137.3 462.6 -137 462.6 -136.5 462.6 C -133.1 462.6 -130.4 459.8 -130.4 456.5 C -130.4 453.5 -129.1 448.3 -129.1 448.3 C -134.4 448.3 -139.2 448.9 -141.8 453.6 L -141.8 453.6 C -142.2 454.5 -142.6 455.6 -142.6 456.6 C -142.6 457.9 -142.2 458.9 -141.5 460 C -142.9 462.1 -144.2 464.2 -145.4 466.3 C -145.8 465.7 -146.3 465.3 -146.9 464.7 C -146.9 464.4 -146.8 464.2 -146.8 464 C -146.8 460.6 -149.6 457.9 -152.8 457.9 C -156.1 458 -161.1 456.6 -161.1 456.6 C -161.1 462 -160.6 466.8 -155.9 469.3 L -155.9 469.3 C -154.9 469.8 -153.9 470.1 -152.8 470.1 C -151.4 470.1 -150.3 469.7 -149.2 469 C -148.5 469.7 -148.1 470.4 -147.6 471.2 C -151.3 479.8 -152.2 488 -151.7 495.7 C -151.8 495.6 -151.9 495.6 -152.2 495.5 C -153 495.1 -153.7 494.6 -154.5 494.3 C -154.4 493.6 -154.4 493 -154.4 492.3 C -154.4 485.6 -159.8 480.1 -166.6 480.1 C -172.9 480.3 -183.1 477.5 -183.1 477.5 C -183.1 488.2 -181.9 497.8 -172.4 503.1 L -172.4 503.1 C -170.7 504.1 -168.6 504.7 -166.4 504.7 C -161.9 504.7 -158.1 502.4 -155.9 498.9 C -155.3 499.2 -154.6 499.4 -154 499.8 C -153.1 500.3 -152 500.7 -151 501.2 C -150.5 504.6 -149.9 507.9 -149.5 511.1 C -148.3 517.8 -147.1 524.2 -147.8 530.1 C -150.1 531 -152 532.3 -153.8 534 C -156 532.9 -158.6 532.3 -161.3 532.3 C -168 532.3 -173.7 536.1 -176.8 541.7 L -116.2 541.7 C -119 537.1 -123.8 534.1 -129.5 533.6 Z" 
               fill="#92d050" id="plant">
               <animateMotion dur="1.6s" repeatCount="indefinite" 
               path="M -200 50 q 1200 -150 1800 5" />
            
               </path>
            
            </g>
        </g>
      </g>
    </g>
  </g>
  
</svg>
