<svg width="75" height="95" xmlns="http://www.w3.org/2000/svg" xmlns:xlink="http://www.w3.org/1999/xlink" overflow="hidden"><defs><clipPath id="clip0"><path d="M995 255 1070 255 1070 350 995 350Z" fill-rule="evenodd" clip-rule="evenodd"/></clipPath></defs><g clip-path="url(#clip0)" transform="translate(-995 -255)"><path d="M1008.49 264.962C1008.65 264.809 1008.82 264.661 1009 264.519 1013.5 260.887 1017.71 258.606 1023.33 257.113 1027.02 256.13 1029.87 256 1033.64 256L1033.65 256C1039.55 256 1046.06 258.034 1051.11 261.045 1054.35 262.985 1056.86 265.12 1059.47 267.827 1059.57 267.934 1059.66 268.029 1059.75 268.14L1060.58 269.125C1061.99 270.812 1063.02 272.359 1064.15 274.234 1065.01 275.671 1065.77 277.275 1066.39 278.832 1066.57 279.276 1066.72 279.728 1066.89 280.169 1067.35 281.324 1067.68 282.54 1067.98 283.745 1068.61 286.286 1068.94 288.905 1069 291.52 1069 291.569 1069 291.612 1069 291.662L1069 293.138C1069 293.187 1069 293.228 1069 293.278 1068.94 295.934 1068.6 298.594 1068 301.18 1066.84 306.081 1065.03 310.848 1062.7 315.312 1062.58 315.552 1062.45 315.765 1062.31 316 1062.27 316.083 1062.24 316.14 1062.2 316.222L1061.32 317.816C1061.3 317.859 1061.28 317.896 1061.26 317.939 1058.58 322.563 1055.57 327.292 1052.17 331.42 1050.01 334.04 1047.94 336.646 1045.62 339.141 1044.58 340.27 1043.58 341.434 1042.49 342.524 1041.66 343.358 1040.82 344.195 1039.99 345.029 1039.58 345.434 1039.13 345.797 1038.73 346.197 1036.8 348.149 1035.05 349 1032.3 349L1032.17 349C1029.14 349 1026.96 346.97 1024.97 344.99 1023.83 343.843 1022.61 342.721 1021.56 341.485 1021.45 341.377 1021.34 341.274 1021.23 341.166 1019.12 339.061 1016.78 336.357 1014.93 334.016 1014.76 333.813 1014.59 333.617 1014.43 333.416 1014.41 333.4 1014.4 333.386 1014.39 333.37L1012.79 331.379C1011.21 329.462 1009.69 327.272 1008.27 325.228 1007.9 324.691 1007.55 324.143 1007.19 323.601 1007.17 323.576 1007.16 323.557 1007.14 323.53L1006.17 322.032C1006.14 321.984 1006.11 321.943 1006.08 321.893 1002.47 315.98 999.291 309.987 997.52 303.244 996.431 299.089 996 296.083 996 291.758L996 291.71C996 286.309 997.582 280.4 1000.07 275.618 1000.2 275.372 1000.34 275.145 1000.4 275.056 1001.27 273.381 1002.34 271.817 1003.46 270.309 1004.65 268.718 1006.89 266.229 1008.49 264.962ZM1032.5 281.155C1026.66 281.155 1021.92 285.884 1021.92 291.719 1021.92 297.557 1026.66 302.284 1032.5 302.284 1038.34 302.284 1043.08 297.557 1043.08 291.719 1043.08 285.884 1038.34 281.155 1032.5 281.155Z" fill="#07485E" fill-rule="evenodd"/><path d="M1002 291.71C1002 295.928 1002.34 297.928 1003.33 301.672 1004.96 307.881 1007.96 313.385 1011.24 318.747L1012.21 320.254C1012.57 320.786 1012.87 321.259 1013.24 321.792 1014.18 323.142 1016.43 326.295 1017.48 327.563L1019.14 329.629C1019.34 329.874 1019.51 330.059 1019.7 330.306 1020.8 331.686 1024.36 335.752 1025.56 336.945 1025.77 337.157 1025.99 337.345 1026.18 337.57 1026.96 338.502 1028.42 339.879 1029.33 340.789 1029.82 341.281 1031.53 343 1032.17 343L1032.3 343C1033.16 343 1033.41 342.97 1034.34 342.029 1034.79 341.582 1035.18 341.275 1035.63 340.83 1036.49 339.97 1037.29 339.17 1038.16 338.309 1039.2 337.266 1040.17 336.127 1041.14 335.086 1043.62 332.411 1045.19 330.395 1047.48 327.608 1050.56 323.867 1053.6 319.12 1056.04 314.903L1056.92 313.299C1057.08 312.97 1057.21 312.79 1057.37 312.503 1059.46 308.488 1061.11 304.176 1062.15 299.756 1062.66 297.605 1062.95 295.353 1063 293.096L1063 291.612C1062.95 289.419 1062.67 287.239 1062.15 285.158 1061.93 284.267 1061.65 283.2 1061.32 282.357 1061.13 281.887 1061.01 281.498 1060.82 281.033 1060.33 279.807 1059.66 278.391 1059.01 277.307 1057.95 275.552 1057.36 274.609 1055.98 272.968L1055.15 271.978C1052.86 269.607 1050.89 267.898 1048.02 266.189 1043.95 263.755 1038.46 262 1033.66 262L1033.65 262C1030.2 262 1028.26 262.009 1024.87 262.907 1019.99 264.205 1016.59 266.093 1012.76 269.178 1012.57 269.336 1012.48 269.45 1012.28 269.603 1011.37 270.296 1008.97 272.952 1008.28 273.878 1007.36 275.098 1006.44 276.432 1005.73 277.787 1005.62 278.01 1005.51 278.141 1005.4 278.364 1003.37 282.253 1002 287.239 1002 291.662ZM1032.5 274.853C1041.81 274.853 1049.37 282.384 1049.37 291.671 1049.37 300.96 1041.81 308.49 1032.5 308.49 1023.19 308.49 1015.64 300.96 1015.64 291.671 1015.64 282.384 1023.19 274.853 1032.5 274.853Z" fill="#D36259" fill-rule="evenodd"/></g></svg>