<svg width="191.27557" height="63.88977" xmlns="http://www.w3.org/2000/svg">
 <metadata id="metadata79">image/svg+xml</metadata>

 <g>
  <title>background</title>
  <rect x="-1" y="-1" width="193.27557" height="65.88977" id="canvas_background" fill="none"/>
 </g>
 <g>
  <title>Layer 1</title>
  <g stroke="null" id="Layer1001">
   <path stroke="null" id="path11" d="m17.502046,22.387923l0.82862,0l0,-4.527984c0,-1.214507 0.028174,-2.165183 0.094079,-2.852528c0.065909,-0.696504 0.244715,-1.28947 0.536519,-1.779299c0.291801,-0.517596 0.715321,-0.941216 1.270954,-1.261194c0.545975,-0.320381 1.157753,-0.48037 1.845102,-0.48037c0.950675,0 1.807271,0.358014 2.579343,1.073335c0.517699,0.480066 0.837776,1.063571 0.978948,1.76038c0.141176,0.687147 0.207082,1.666297 0.207082,2.937053l0,5.130607l2.758346,0c1.063674,0 1.882838,0.254171 2.43817,0.753057c0.564792,0.50854 0.847437,1.157955 0.847437,1.939182c0,1.016885 -0.405001,1.722849 -1.205147,2.127549c-0.800044,0.405004 -1.939185,0.602725 -3.436136,0.602725l-1.40267,0l0,13.838328c0,1.17657 0.037934,2.089916 0.12266,2.720511c0.084624,0.630899 0.301161,1.148598 0.658871,1.543945c0.367067,0.395343 0.950573,0.592962 1.76038,0.592962c0.432976,0 1.035398,-0.075263 1.788652,-0.235252c0.753057,-0.150632 1.346022,-0.235354 1.76038,-0.235354c0.611885,0 1.157757,0.244711 1.647282,0.734138c0.489727,0.489826 0.724982,1.092148 0.724982,1.807572c0,1.214405 -0.658875,2.137207 -1.976918,2.777261c-1.327407,0.649415 -3.229058,0.969393 -5.714219,0.969393c-2.353444,0 -4.132641,-0.395244 -5.337787,-1.185931c-1.214203,-0.790888 -2.005095,-1.882736 -2.381622,-3.285504c-0.376527,-1.393412 -0.564689,-3.257331 -0.564689,-5.591859l0,-14.450209l-0.988609,0c-1.091848,0 -1.920471,-0.254171 -2.485259,-0.77217c-0.574149,-0.508243 -0.856797,-1.167114 -0.856797,-1.958105c0,-0.781227 0.301465,-1.430639 0.894529,-1.939182c0.602322,-0.498886 1.468576,-0.753057 2.607516,-0.753057zm27.093143,3.596125l0,21.764917c0,1.506308 -0.357607,2.645146 -1.073331,3.41732c-0.715321,0.771771 -1.619208,1.157655 -2.720412,1.157655c-1.101611,0 -1.995734,-0.395244 -2.682882,-1.185931c-0.687451,-0.790888 -1.035702,-1.920468 -1.035702,-3.389043l0,-21.539019c0,-1.496852 0.34825,-2.616873 1.035702,-3.37023c0.687147,-0.752954 1.58127,-1.129481 2.682882,-1.129481c1.101205,0 2.005091,0.376527 2.720412,1.129481c0.715724,0.753357 1.073331,1.807469 1.073331,3.144332zm-3.718481,-7.775855c-1.045059,0 -1.939284,-0.319978 -2.682882,-0.960336c-0.743795,-0.640055 -1.110965,-1.5531 -1.110965,-2.729872c0,-1.054518 0.376527,-1.929927 1.139241,-2.616976c0.76241,-0.687448 1.64718,-1.035698 2.654605,-1.035698c0.978849,0 1.835745,0.310617 2.5887,0.932159c0.753357,0.630599 1.129781,1.534181 1.129781,2.720515c0,1.157955 -0.367067,2.06164 -1.101505,2.711055c-0.73424,0.649716 -1.600391,0.979153 -2.616976,0.979153zm39.698249,18.8182c0,2.250107 -0.34825,4.31175 -1.044857,6.203945c-0.705862,1.892192 -1.713287,3.520558 -3.040793,4.876234c-1.317742,1.365139 -2.908677,2.400537 -4.744423,3.125519c-1.835745,0.724777 -3.906742,1.091848 -6.20374,1.091848c-2.287538,0 -4.339722,-0.367071 -6.156651,-1.101205c-1.81683,-0.734442 -3.398404,-1.788656 -4.735263,-3.163152c-1.327506,-1.365136 -2.343988,-2.984043 -3.031136,-4.848061c-0.687448,-1.873379 -1.035702,-3.935022 -1.035702,-6.194585c0,-2.278079 0.348254,-4.367896 1.045059,-6.260091c0.705964,-1.892195 1.703732,-3.511502 3.012319,-4.857421c1.308587,-1.336859 2.890264,-2.372261 4.744723,-3.097342c1.854562,-0.724777 3.906845,-1.091848 6.156651,-1.091848c2.278181,0 4.349178,0.367071 6.20374,1.101307c1.854562,0.734438 3.445497,1.788656 4.772699,3.153689c1.327403,1.35568 2.334829,2.974686 3.021976,4.857421c0.687147,1.873379 1.035398,3.944478 1.035398,6.203744l0,-0.000004zm-7.568576,0c0,-3.068765 -0.677889,-5.450383 -2.023908,-7.163773c-1.35568,-1.70393 -3.163149,-2.560526 -5.44133,-2.560526c-1.478035,0 -2.767805,0.376527 -3.887929,1.138941c-1.120322,0.76241 -1.986275,1.892195 -2.589,3.379686c-0.611782,1.487392 -0.913042,3.228754 -0.913042,5.205672c0,1.967762 0.30126,3.690311 0.894226,5.158887c0.602725,1.468675 1.449862,2.598156 2.560826,3.379686c1.110664,0.781231 2.428711,1.167114 3.93492,1.167114c2.278181,0 4.08565,-0.856493 5.44133,-2.57924c1.346019,-1.71339 2.023908,-4.095011 2.023908,-7.126447z" fill-rule="evenodd" fill="#04303e"/>
   <path stroke="null" id="path13" d="m91.081292,26.398208l6.090742,17.114574l6.561351,-17.858168c0.517699,-1.430946 1.016885,-2.447729 1.515669,-3.050154c0.498882,-0.592962 1.252239,-0.894226 2.259365,-0.894226c0.960333,0 1.769836,0.32008 2.438068,0.969492c0.668631,0.640055 1.007426,1.383952 1.007426,2.231089c0,0.329437 -0.05645,0.715621 -0.178806,1.157959c-0.122356,0.442432 -0.254171,0.856592 -0.41416,1.24278c-0.159989,0.385884 -0.339095,0.82832 -0.536816,1.317742l-7.220226,17.933335c-0.207078,0.508646 -0.46145,1.167517 -0.790987,1.958101c-0.319978,0.79099 -0.677688,1.459219 -1.072932,2.02401c-0.395644,0.564993 -0.88507,0.99797 -1.459219,1.308587c-0.583605,0.310621 -1.280413,0.47061 -2.108733,0.47061c-1.063875,0 -1.911012,-0.244711 -2.551066,-0.734138c-0.630899,-0.480066 -1.101509,-1.016783 -1.402769,-1.600391c-0.301161,-0.574149 -0.819164,-1.722747 -1.534485,-3.426779l-7.164077,-17.735713c-0.169445,-0.442334 -0.338893,-0.884766 -0.508239,-1.327103c-0.178904,-0.442736 -0.32008,-0.88507 -0.442436,-1.346319c-0.122356,-0.46115 -0.178806,-0.856794 -0.178806,-1.186231c0,-0.517699 0.159989,-1.025942 0.47061,-1.534284c0.310621,-0.508543 0.743597,-0.922703 1.28977,-1.242681c0.555332,-0.320077 1.148298,-0.480066 1.798116,-0.480066c1.242377,0 2.10863,0.35771 2.57924,1.073031c0.461249,0.725081 0.978952,1.929828 1.553401,3.614942zm43.577019,21.699008c-1.826286,1.41213 -3.586765,2.466344 -5.281239,3.172608c-1.70393,0.705862 -3.614942,1.054116 -5.723675,1.054116c-1.929825,0 -3.633758,-0.385884 -5.092776,-1.148298c-1.459219,-0.762714 -2.589,-1.788656 -3.379588,-3.097243c-0.790987,-1.308686 -1.18633,-2.720511 -1.18633,-4.245639c0,-2.06164 0.649514,-3.812663 1.958101,-5.262422c1.308689,-1.458918 3.106703,-2.428711 5.394237,-2.927597c0.47061,-0.112896 1.656841,-0.35771 3.549135,-0.743898c1.892195,-0.385884 3.52076,-0.734134 4.866778,-1.063571c1.346323,-0.320077 2.814898,-0.706264 4.396473,-1.167415c-0.094383,-1.986377 -0.489727,-3.445596 -1.195691,-4.367995c-0.715321,-0.931859 -2.17454,-1.393313 -4.405526,-1.393313c-1.911111,0 -3.351513,0.263528 -4.311849,0.800347c-0.969492,0.527056 -1.797812,1.327103 -2.485161,2.400434c-0.687144,1.063575 -1.17657,1.760482 -1.459219,2.108733c-0.291801,0.338794 -0.903583,0.508243 -1.835745,0.508243c-0.847133,0 -1.58127,-0.272988 -2.193353,-0.818864c-0.611885,-0.536516 -0.922502,-1.23332 -0.922502,-2.080457c0,-1.327506 0.470709,-2.617276 1.402769,-3.869113c0.941318,-1.252137 2.400537,-2.278079 4.386812,-3.087882c1.986377,-0.809503 4.462078,-1.214207 7.427605,-1.214207c3.30412,0 5.91194,0.395343 7.804131,1.176574c1.892195,0.781531 3.228758,2.014551 4.010285,3.709124c0.781231,1.69447 1.176574,3.93492 1.176574,6.730998c0,1.769539 -0.009057,3.26649 -0.018817,4.49981c-0.009057,1.233324 -0.018817,2.607516 -0.037633,4.113828c0,1.412126 0.235255,2.889857 0.706165,4.424441c0.47061,1.525128 0.696504,2.513737 0.696504,2.956071c0,0.77187 -0.357611,1.478035 -1.082692,2.108733c-0.734138,0.630599 -1.553097,0.950577 -2.4758,0.950577c-0.771771,0 -1.534485,-0.357611 -2.287538,-1.082392c-0.752954,-0.725081 -1.553302,-1.769836 -2.400434,-3.144332l-0.000004,0zm-0.498882,-10.91053c-1.101509,0.4047 -2.7019,0.837677 -4.810633,1.280113c-2.099273,0.451789 -3.558492,0.790888 -4.367995,0.997966c-0.809705,0.216538 -1.581574,0.630698 -2.315712,1.24248c-0.734438,0.621542 -1.101505,1.478035 -1.101505,2.589c0,1.138941 0.432973,2.108733 1.299127,2.908776c0.856596,0.800347 1.986377,1.205048 3.388846,1.205048c1.487392,0 2.861987,-0.329434 4.114124,-0.979149c1.261296,-0.658871 2.183999,-1.496651 2.776965,-2.53225c0.677688,-1.139241 1.016783,-3.021976 1.016783,-5.638952l0,-1.073031zm21.84964,-11.315534l0,0.913042c1.327103,-1.751023 2.776961,-3.031132 4.34908,-3.850296c1.572217,-0.818963 3.379386,-1.223663 5.422513,-1.223663c1.986275,0 3.75581,0.432976 5.328027,1.298929c1.562758,0.856794 2.730172,2.080457 3.502046,3.662031c0.49878,0.922703 0.81886,1.911012 0.96969,2.984347c0.141275,1.063571 0.216541,2.419251 0.216541,4.076191l0,14.017232c0,1.506308 -0.348554,2.645146 -1.035702,3.41732c-0.687049,0.771771 -1.590931,1.157655 -2.692239,1.157655c-1.120325,0 -2.033367,-0.395244 -2.739632,-1.185931c-0.696504,-0.790888 -1.044759,-1.920468 -1.044759,-3.389043l0,-12.558014c0,-2.476104 -0.34825,-4.377656 -1.035702,-5.695398c-0.687045,-1.308689 -2.061541,-1.967561 -4.123181,-1.967561c-1.336863,0 -2.560526,0.395343 -3.671491,1.195387c-1.101208,0.800347 -1.911012,1.901655 -2.419251,3.304424c-0.367071,1.120322 -0.555332,3.210238 -0.555332,6.288364l0,9.432799c0,1.525124 -0.357714,2.663962 -1.063978,3.426677c-0.705862,0.762414 -1.619208,1.148298 -2.729872,1.148298c-1.082692,0 -1.976918,-0.395244 -2.673722,-1.185931c-0.696504,-0.790888 -1.044759,-1.920468 -1.044759,-3.389043l0,-21.764917c0,-1.430942 0.310621,-2.503974 0.931859,-3.210139c0.630899,-0.70596 1.478035,-1.063674 2.560727,-1.063674c0.658871,0 1.261296,0.159989 1.788652,0.47061c0.536519,0.310621 0.960135,0.781227 1.280113,1.402769c0.319978,0.621242 0.48037,1.393009 0.48037,2.287538z" fill-rule="evenodd" fill="#ffffff"/>
  </g>
 </g>
</svg>