<?xml version="1.0" standalone="no"?>
<!DOCTYPE svg PUBLIC "-//W3C//DTD SVG 20010904//EN"
 "http://www.w3.org/TR/2001/REC-SVG-20010904/DTD/svg10.dtd">
<svg version="1.0" xmlns="http://www.w3.org/2000/svg"
 width="1280.000000pt" height="1280.000000pt" viewBox="0 0 1280.000000 1280.000000"
 preserveAspectRatio="xMidYMid meet">

<g transform="translate(0.000000,1280.000000) scale(0.100000,-0.100000)"
fill="#000000" stroke="none">
<path d="M6300 9193 c-141 -23 -295 -119 -383 -237 -180 -241 -154 -547 76
-890 37 -55 67 -101 67 -103 0 -2 -261 -3 -581 -3 -519 0 -584 -2 -612 -16
-18 -9 -80 -67 -139 -129 l-108 -113 -1 -421 c-1 -231 -3 -425 -4 -431 -1 -5
-3 -14 -4 -20 0 -5 -29 -10 -62 -10 -34 0 -79 -5 -101 -12 -48 -14 -120 -76
-141 -120 -8 -18 -72 -276 -142 -572 -146 -617 -145 -614 -78 -677 22 -21 58
-42 79 -48 27 -8 700 -11 2242 -11 l2203 0 49 21 c51 22 92 70 104 122 4 18
-19 136 -69 350 -42 177 -101 428 -132 557 -30 129 -61 246 -68 260 -18 34
-72 88 -110 108 -17 9 -65 17 -112 20 l-83 5 0 106 c0 133 -14 168 -80 193
-25 9 -127 39 -227 65 l-182 47 -45 235 c-25 129 -55 254 -67 277 -32 66 -102
138 -162 167 -84 40 -151 47 -429 47 l-258 0 64 98 c138 211 197 368 197 532
1 102 -18 195 -53 264 -85 169 -236 290 -411 331 -58 14 -179 18 -237 8z m-80
-357 c0 -2 -8 -10 -17 -17 -16 -13 -17 -12 -4 4 13 16 21 21 21 13z m381 -13
c13 -16 12 -17 -3 -4 -10 7 -18 15 -18 17 0 8 8 3 21 -13z m-640 -16 c-10 -9
-11 -8 -5 6 3 10 9 15 12 12 3 -3 0 -11 -7 -18z m542 -60 c63 -48 88 -147 53
-215 -36 -71 -123 -112 -196 -92 -152 41 -178 244 -40 318 60 31 133 27 183
-11z m-258 -986 c138 -135 172 -135 311 1 l91 89 344 -3 c331 -3 346 -4 384
-25 47 -25 96 -75 119 -120 9 -18 38 -148 66 -289 27 -141 51 -259 54 -261 5
-5 270 -78 399 -110 l67 -17 0 -363 0 -363 -144 0 c-141 0 -144 0 -150 23 -3
12 -6 33 -6 47 0 42 -56 147 -105 195 -25 26 -72 59 -103 73 -49 23 -70 27
-152 27 -88 0 -101 -3 -162 -33 -108 -53 -177 -146 -200 -271 l-12 -61 -645 2
-646 3 -3 30 c-7 72 -47 159 -99 215 -102 110 -245 148 -387 100 -124 -41
-230 -171 -243 -296 l-6 -54 -148 0 -149 0 0 682 0 683 92 92 93 93 625 0 625
0 90 -89z m-1633 -1308 c3 -169 5 -191 23 -215 28 -38 77 -49 213 -48 195 2
176 6 200 -48 31 -68 105 -139 182 -176 58 -28 75 -31 155 -31 79 1 98 5 155
32 78 36 148 103 181 172 l24 51 657 0 658 0 24 -49 c14 -27 24 -50 23 -52 -1
-2 0 -3 1 -2 2 1 17 -13 33 -32 72 -81 198 -132 306 -122 97 9 158 40 235 119
37 38 73 85 80 104 14 38 -1 36 190 34 147 -1 190 9 217 54 19 31 21 49 21
215 l0 181 39 0 c44 0 57 -12 64 -57 3 -18 10 -47 15 -65 6 -18 29 -114 52
-213 24 -99 51 -214 62 -255 11 -41 26 -106 35 -145 8 -38 28 -127 44 -198 17
-70 27 -132 24 -137 -8 -13 -4241 -14 -4250 0 -3 5 6 54 20 110 14 55 27 113
29 128 2 15 28 128 59 252 30 124 72 297 93 385 20 88 41 168 46 178 6 12 21
17 48 17 l39 0 3 -187z m851 21 c45 -23 66 -44 88 -86 40 -78 15 -180 -57
-234 -68 -52 -190 -41 -245 22 -84 96 -54 250 59 301 39 17 118 15 155 -3z
m2024 5 c83 -31 136 -133 113 -218 -13 -50 -63 -109 -107 -127 -83 -35 -188
-2 -235 73 -34 56 -33 145 4 200 46 69 147 102 225 72z"/>
<path d="M5216 6988 c-9 -34 -7 -171 3 -186 12 -20 166 -12 166 8 0 11 -16 16
-60 20 -61 5 -62 6 -56 50 0 6 24 10 51 10 38 0 50 4 50 15 0 11 -12 15 -49
15 -32 0 -51 5 -54 13 -9 25 8 36 58 39 38 2 51 7 53 21 3 15 -6 17 -76 17
-74 0 -80 -2 -86 -22z"/>
<path d="M5470 6990 c-24 -24 -26 -62 -5 -80 8 -6 34 -18 57 -25 53 -15 66
-50 22 -61 -22 -6 -31 -2 -49 19 -26 34 -45 34 -45 3 0 -34 35 -56 87 -56 49
0 83 26 83 63 0 35 -21 56 -70 71 -33 10 -45 18 -45 32 0 27 41 31 57 5 16
-27 48 -28 48 -2 0 48 -101 70 -140 31z"/>
<path d="M5743 7000 c-66 -28 -77 -128 -21 -187 45 -48 158 -17 158 43 0 32
-25 31 -46 -1 -19 -29 -64 -34 -85 -9 -21 25 -17 93 6 110 28 21 51 17 79 -12
25 -28 46 -25 46 5 0 42 -85 74 -137 51z"/>
<path d="M5979 6982 c-25 -22 -31 -36 -32 -73 -3 -80 33 -119 112 -119 73 0
113 60 97 145 -14 72 -118 100 -177 47z m113 -29 c25 -22 24 -84 -1 -107 -29
-26 -73 -17 -89 17 -33 69 36 139 90 90z"/>
<path d="M6235 6997 c-3 -7 -4 -56 -3 -108 l3 -94 75 0 c60 0 75 3 75 15 0 11
-14 16 -52 18 l-52 3 -3 87 c-3 73 -6 87 -21 90 -9 2 -19 -3 -22 -11z"/>
<path d="M6502 6993 c-29 -58 -73 -184 -67 -192 11 -19 35 -12 45 14 8 21 16
25 53 25 37 0 46 -4 55 -25 12 -25 36 -33 47 -15 6 9 -58 172 -78 198 -14 18
-45 15 -55 -5z m46 -80 c10 -31 10 -33 -14 -33 -22 0 -24 3 -18 28 13 52 16
52 32 5z"/>
<path d="M6704 6997 c-3 -8 -3 -56 -2 -108 3 -86 5 -94 23 -94 16 0 21 8 23
43 4 55 24 54 67 -5 32 -44 65 -57 65 -24 0 11 -12 33 -26 50 -20 24 -22 31
-10 31 38 0 49 80 14 104 -29 20 -146 22 -154 3z m110 -23 c9 -3 16 -16 16
-29 0 -24 -17 -35 -56 -35 -21 0 -24 5 -24 35 0 30 3 35 24 35 13 0 31 -3 40
-6z"/>
<path d="M4758 4883 c-74 -46 -61 -154 23 -187 80 -32 149 16 149 104 0 42 -4
52 -31 74 -36 31 -99 35 -141 9z"/>
<path d="M4207 4860 c-35 -28 -47 -76 -47 -191 l0 -96 -40 -7 c-52 -8 -80 -36
-80 -81 0 -55 34 -80 106 -78 9 0 13 -77 15 -281 4 -276 4 -282 29 -331 35
-69 87 -97 193 -103 144 -8 247 33 247 100 0 67 -37 92 -116 77 -55 -11 -85
-6 -108 17 -14 13 -16 52 -16 267 l0 252 57 2 c88 4 126 41 108 110 -7 31 -58
53 -123 53 l-49 0 4 43 c3 23 2 80 -2 126 -6 75 -10 88 -35 113 -36 36 -103
39 -143 8z"/>
<path d="M4780 4577 c-68 -23 -70 -36 -70 -435 0 -378 3 -402 51 -436 13 -9
41 -16 62 -16 31 0 46 7 73 34 l34 34 0 370 c0 212 -4 381 -10 396 -18 49 -83
73 -140 53z"/>
<path d="M5450 4577 c-90 -18 -151 -47 -211 -104 -89 -83 -129 -188 -129 -339
0 -269 171 -444 435 -444 171 0 320 83 388 215 45 89 62 249 38 358 -24 105
-100 212 -185 261 -88 52 -227 73 -336 53z m153 -168 c50 -14 100 -59 128
-117 20 -40 23 -63 24 -152 0 -88 -4 -113 -23 -155 -28 -61 -47 -82 -94 -106
-72 -37 -189 -18 -240 38 -43 47 -62 114 -63 218 0 120 17 173 73 228 55 54
116 68 195 46z"/>
</g>
</svg>
