<?xml version="1.0" encoding="UTF-8"?>
<svg xmlns="http://www.w3.org/2000/svg" xmlns:xlink="http://www.w3.org/1999/xlink" width="120pt" height="120pt" viewBox="0 0 120 120" version="1.1">
<g id="surface1">
<path style=" stroke:none;fill-rule:nonzero;fill:rgb(41.176471%,29.411765%,29.411765%);fill-opacity:1;" d="M 20.625 37.3125 C 1.421875 37.3125 3.550781 60.664062 3.636719 77.582031 C 3.640625 78.222656 3.976562 78.800781 4.523438 79.128906 C 6.652344 80.410156 12.496094 83.410156 20.625 83.410156 C 28.75 83.410156 34.59375 80.410156 36.722656 79.128906 C 37.269531 78.800781 37.601562 78.222656 37.605469 77.582031 C 37.691406 60.664062 39.820312 37.3125 20.625 37.3125 Z M 20.625 37.3125 "/>
<path style=" stroke:none;fill-rule:nonzero;fill:rgb(35.294118%,25.490196%,27.45098%);fill-opacity:1;" d="M 19.386719 37.363281 C 1.527344 38.363281 3.554688 61.039062 3.636719 77.582031 C 3.640625 78.222656 3.976562 78.800781 4.523438 79.128906 C 6.652344 80.410156 12.496094 83.410156 20.625 83.410156 L 25.476562 49.441406 "/>
<path style=" stroke:none;fill-rule:nonzero;fill:rgb(41.176471%,29.411765%,29.411765%);fill-opacity:1;" d="M 20.625 37.3125 C 9.707031 37.3125 8.945312 50.507812 8.945312 50.507812 C 15.242188 49.441406 19.105469 52.097656 25.476562 49.441406 L 20.625 83.410156 C 28.75 83.410156 34.59375 80.410156 36.722656 79.128906 C 37.269531 78.800781 37.601562 78.222656 37.605469 77.582031 C 37.691406 60.664062 39.820312 37.3125 20.625 37.3125 Z M 20.625 37.3125 "/>
<path style=" stroke:none;fill-rule:nonzero;fill:rgb(47.058824%,33.333333%,31.372549%);fill-opacity:1;" d="M 37.605469 77.582031 C 37.679688 63.042969 39.25 43.769531 27.511719 38.632812 C 27.308594 39.695312 26.9375 42.664062 27.902344 44.59375 C 30.324219 49.441406 32.753906 49.441406 35.179688 53.082031 C 37.605469 66.425781 30.542969 80.589844 28.195312 82.515625 C 32.355469 81.53125 35.332031 79.964844 36.722656 79.128906 C 37.269531 78.800781 37.601562 78.222656 37.605469 77.582031 Z M 37.605469 77.582031 "/>
<path style=" stroke:none;fill-rule:nonzero;fill:rgb(90.196078%,68.627451%,47.058824%);fill-opacity:1;" d="M 39.003906 81.265625 L 28.179688 76.753906 C 27.277344 76.378906 26.6875 75.496094 26.6875 74.515625 L 26.6875 71.585938 L 14.558594 71.585938 L 14.558594 74.515625 C 14.558594 75.496094 13.96875 76.378906 13.066406 76.753906 L 2.242188 81.265625 C 0.882812 81.828125 0 83.152344 0 84.625 L 0 89.476562 C 0 90.816406 1.085938 91.902344 2.425781 91.902344 L 38.820312 91.902344 C 40.160156 91.902344 41.242188 90.816406 41.242188 89.476562 L 41.242188 84.625 C 41.242188 83.152344 40.359375 81.828125 39.003906 81.265625 Z M 39.003906 81.265625 "/>
<path style=" stroke:none;fill-rule:nonzero;fill:rgb(93.72549%,94.901961%,98.039216%);fill-opacity:1;" d="M 39.003906 81.265625 L 28.539062 76.90625 L 20.625 80.320312 L 12.703125 76.90625 L 2.242188 81.265625 C 0.882812 81.828125 0 83.152344 0 84.625 L 0 89.476562 C 0 90.816406 1.085938 91.902344 2.425781 91.902344 L 38.820312 91.902344 C 40.160156 91.902344 41.242188 90.816406 41.242188 89.476562 L 41.242188 84.625 C 41.242188 83.152344 40.359375 81.828125 39.003906 81.265625 Z M 39.003906 81.265625 "/>
<path style=" stroke:none;fill-rule:nonzero;fill:rgb(82.352941%,60.784314%,43.137255%);fill-opacity:1;" d="M 26.6875 71.585938 L 14.558594 71.585938 L 14.558594 74.515625 C 14.558594 75.496094 13.96875 76.378906 13.066406 76.753906 L 11.371094 77.460938 C 24.308594 80.757812 26.6875 71.585938 26.6875 71.585938 Z M 26.6875 71.585938 "/>
<path style=" stroke:none;fill-rule:nonzero;fill:rgb(89.411765%,91.764706%,96.470588%);fill-opacity:1;" d="M 5.914062 85.957031 L 1.042969 82.085938 C 0.390625 82.75 0 83.652344 0 84.625 L 0 89.476562 C 0 90.816406 1.085938 91.902344 2.425781 91.902344 L 7.277344 91.902344 L 7.277344 88.796875 C 7.277344 87.695312 6.777344 86.648438 5.914062 85.957031 Z M 5.914062 85.957031 "/>
<path style=" stroke:none;fill-rule:nonzero;fill:rgb(89.411765%,91.764706%,96.470588%);fill-opacity:1;" d="M 41.242188 89.476562 L 41.242188 84.625 C 41.242188 83.660156 40.859375 82.765625 40.21875 82.101562 L 35.332031 85.957031 C 34.46875 86.648438 33.964844 87.695312 33.964844 88.796875 L 33.964844 91.902344 L 38.820312 91.902344 C 40.160156 91.902344 41.242188 90.816406 41.242188 89.476562 Z M 41.242188 89.476562 "/>
<path style=" stroke:none;fill-rule:nonzero;fill:rgb(89.411765%,91.764706%,96.470588%);fill-opacity:1;" d="M 20.804688 89.476562 L 20.4375 89.476562 C 19.871094 89.476562 19.40625 89.015625 19.40625 88.445312 L 19.40625 80.324219 L 21.835938 80.324219 L 21.835938 88.445312 C 21.835938 89.015625 21.375 89.476562 20.804688 89.476562 Z M 20.804688 89.476562 "/>
<path style=" stroke:none;fill-rule:nonzero;fill:rgb(89.411765%,91.764706%,96.470588%);fill-opacity:1;" d="M 20.625 80.320312 L 13.679688 75.113281 C 13.234375 74.777344 12.597656 74.886719 12.289062 75.351562 L 10.917969 77.410156 L 15.175781 83.367188 C 15.496094 83.820312 16.136719 83.910156 16.570312 83.5625 Z M 20.625 80.320312 "/>
<path style=" stroke:none;fill-rule:nonzero;fill:rgb(89.411765%,91.764706%,96.470588%);fill-opacity:1;" d="M 20.625 80.320312 L 27.5625 75.113281 C 28.007812 74.777344 28.644531 74.886719 28.953125 75.351562 L 30.324219 77.410156 L 26.070312 83.367188 C 25.746094 83.820312 25.109375 83.910156 24.675781 83.5625 Z M 20.625 80.320312 "/>
<path style=" stroke:none;fill-rule:nonzero;fill:rgb(94.117647%,75.294118%,52.941176%);fill-opacity:1;" d="M 26.6875 48.230469 C 20.625 54.296875 8.71875 49.441406 8.71875 59.148438 L 9.472656 66.296875 C 9.617188 67.898438 10.542969 69.320312 11.945312 70.101562 L 18.855469 73.9375 C 19.953125 74.546875 21.289062 74.546875 22.390625 73.9375 L 29.296875 70.101562 C 30.699219 69.320312 31.625 67.898438 31.773438 66.296875 L 32.640625 57.808594 C 32.703125 57.203125 32.714844 56.597656 32.695312 55.992188 C 32.242188 52.902344 27.902344 50.660156 26.6875 48.230469 Z M 26.6875 48.230469 "/>
<path style=" stroke:none;fill-rule:nonzero;fill:rgb(90.196078%,68.627451%,47.058824%);fill-opacity:1;" d="M 8.71875 59.148438 L 9.472656 66.296875 C 9.617188 67.898438 10.542969 69.320312 11.945312 70.101562 L 18.855469 73.9375 C 19.617188 74.359375 20.492188 74.46875 21.324219 74.304688 C 21.324219 74.304688 17.84375 73.25 15.769531 67.640625 C 15.132812 65.921875 14.253906 56.824219 15.011719 55.710938 C 16.507812 53.511719 24.867188 53.285156 27.335938 49.210938 C 27.214844 49.058594 27.101562 48.902344 27 48.753906 C 26.992188 48.742188 26.980469 48.730469 26.972656 48.71875 C 26.867188 48.554688 26.769531 48.394531 26.6875 48.230469 C 20.625 54.296875 8.71875 49.441406 8.71875 59.148438 Z M 8.71875 59.148438 "/>
<path style=" stroke:none;fill-rule:nonzero;fill:rgb(89.411765%,91.764706%,96.470588%);fill-opacity:1;" d="M 29.476562 89.476562 L 26.324219 89.476562 C 25.1875 89.476562 24.261719 90.398438 24.261719 91.539062 L 24.261719 91.902344 L 31.539062 91.902344 L 31.539062 91.539062 C 31.539062 90.398438 30.617188 89.476562 29.476562 89.476562 Z M 29.476562 89.476562 "/>
<path style=" stroke:none;fill-rule:nonzero;fill:rgb(90.196078%,68.627451%,47.058824%);fill-opacity:1;" d="M 103.5 75.625 L 103.5 68.964844 L 86.367188 68.964844 L 86.367188 75.625 L 94.933594 83.238281 Z M 103.5 75.625 "/>
<path style=" stroke:none;fill-rule:nonzero;fill:rgb(93.72549%,94.901961%,98.039216%);fill-opacity:1;" d="M 116.746094 78.738281 L 104.96875 75.96875 C 104.789062 75.929688 104.628906 75.855469 104.472656 75.769531 L 94.933594 81.335938 L 85.769531 75.5 C 85.527344 75.726562 85.234375 75.890625 84.902344 75.96875 L 73.125 78.738281 C 71.402344 79.144531 70.1875 80.679688 70.1875 82.445312 L 70.1875 89.902344 C 70.1875 90.953125 71.039062 91.804688 72.09375 91.804688 L 117.777344 91.804688 C 118.828125 91.804688 119.679688 90.953125 119.679688 89.902344 L 119.679688 82.445312 C 119.679688 80.679688 118.464844 79.144531 116.746094 78.738281 Z M 116.746094 78.738281 "/>
<path style=" stroke:none;fill-rule:nonzero;fill:rgb(82.352941%,60.784314%,43.137255%);fill-opacity:1;" d="M 86.367188 68.964844 L 86.367188 75.992188 C 97.160156 79.878906 103.5 70.148438 103.5 70.148438 L 103.5 68.964844 Z M 86.367188 68.964844 "/>
<path style=" stroke:none;fill-rule:nonzero;fill:rgb(94.117647%,75.294118%,52.941176%);fill-opacity:1;" d="M 82.5625 47.070312 L 83.390625 65.316406 C 83.46875 67.019531 84.304688 68.605469 85.667969 69.625 L 89.605469 72.578125 C 90.59375 73.320312 91.796875 73.722656 93.03125 73.722656 L 96.839844 73.722656 C 98.074219 73.722656 99.277344 73.320312 100.265625 72.578125 L 104.199219 69.625 C 105.566406 68.605469 106.402344 67.019531 106.480469 65.316406 L 107.308594 47.070312 Z M 82.5625 47.070312 "/>
<path style=" stroke:none;fill-rule:nonzero;fill:rgb(90.196078%,68.627451%,47.058824%);fill-opacity:1;" d="M 92.078125 50.875 C 95.886719 50.875 101.597656 49.925781 102.949219 47.070312 L 82.5625 47.070312 L 83.390625 65.316406 C 83.46875 67.019531 84.304688 68.605469 85.667969 69.625 L 89.605469 72.578125 C 90.59375 73.320312 91.796875 73.722656 93.03125 73.722656 L 94.933594 73.722656 C 93.03125 73.722656 89.222656 69.914062 89.222656 65.15625 C 89.222656 62.828125 89.222656 56.589844 89.222656 53.730469 C 89.222656 52.78125 90.175781 50.875 92.078125 50.875 Z M 92.078125 50.875 "/>
<path style=" stroke:none;fill-rule:nonzero;fill:rgb(89.411765%,91.764706%,96.470588%);fill-opacity:1;" d="M 112.691406 85.628906 L 118.859375 80.085938 C 119.378906 80.742188 119.679688 81.5625 119.679688 82.445312 L 119.679688 89.902344 C 119.679688 90.953125 118.828125 91.804688 117.777344 91.804688 L 111.113281 91.804688 L 111.113281 89.167969 C 111.113281 87.816406 111.691406 86.53125 112.691406 85.628906 Z M 112.691406 85.628906 "/>
<path style=" stroke:none;fill-rule:nonzero;fill:rgb(35.686275%,36.470588%,43.137255%);fill-opacity:1;" d="M 97.3125 91.804688 L 92.554688 91.804688 L 93.148438 83.238281 L 96.71875 83.238281 Z M 97.3125 91.804688 "/>
<path style=" stroke:none;fill-rule:nonzero;fill:rgb(31.764706%,32.156863%,38.431373%);fill-opacity:1;" d="M 97.3125 81.335938 L 92.554688 81.335938 L 92.554688 81.882812 C 92.554688 83.160156 93.589844 84.191406 94.859375 84.191406 L 95.007812 84.191406 C 96.28125 84.191406 97.3125 83.15625 97.3125 81.882812 Z M 97.3125 81.335938 "/>
<path style=" stroke:none;fill-rule:nonzero;fill:rgb(89.411765%,91.764706%,96.470588%);fill-opacity:1;" d="M 86.234375 73.503906 L 94.933594 81.335938 C 94.933594 81.335938 92.496094 82.5625 89.488281 85.046875 C 88.871094 85.554688 87.929688 85.347656 87.601562 84.613281 L 83.511719 75.625 L 84.804688 73.683594 C 85.125 73.203125 85.800781 73.117188 86.234375 73.503906 Z M 86.234375 73.503906 "/>
<path style=" stroke:none;fill-rule:nonzero;fill:rgb(89.411765%,91.764706%,96.470588%);fill-opacity:1;" d="M 103.632812 73.503906 L 94.933594 81.335938 C 94.933594 81.335938 97.371094 82.5625 100.375 85.046875 C 100.996094 85.554688 101.933594 85.347656 102.269531 84.613281 L 106.355469 75.625 L 105.0625 73.683594 C 104.738281 73.203125 104.066406 73.117188 103.632812 73.503906 Z M 103.632812 73.503906 "/>
<path style=" stroke:none;fill-rule:nonzero;fill:rgb(47.058824%,33.333333%,31.372549%);fill-opacity:1;" d="M 100.703125 40.765625 L 101.597656 47.070312 C 105.671875 47.886719 106.257812 54.277344 106.339844 56.101562 C 106.355469 56.433594 106.464844 56.753906 106.644531 57.03125 L 108.195312 59.445312 C 108.195312 59.445312 107.664062 55.457031 110.101562 52.78125 C 110.101562 52.78125 110.933594 36.957031 100.703125 40.765625 Z M 100.703125 40.765625 "/>
<path style=" stroke:none;fill-rule:nonzero;fill:rgb(94.117647%,75.294118%,52.941176%);fill-opacity:1;" d="M 109.148438 59.035156 L 108.078125 63.335938 C 107.949219 63.84375 107.492188 64.203125 106.964844 64.203125 C 106.386719 64.203125 105.902344 63.773438 105.832031 63.199219 L 105.28125 58.800781 C 105.136719 57.628906 106.050781 56.589844 107.234375 56.589844 L 107.238281 56.589844 C 108.523438 56.589844 109.460938 57.792969 109.148438 59.035156 Z M 109.148438 59.035156 "/>
<path style=" stroke:none;fill-rule:nonzero;fill:rgb(41.176471%,29.411765%,29.411765%);fill-opacity:1;" d="M 83.472656 39.058594 L 84.878906 40.019531 C 78.515625 44.722656 79.707031 52.78125 79.707031 52.78125 C 81.605469 54.683594 81.605469 59.445312 81.605469 59.445312 L 83.511719 57.539062 C 83.511719 57.539062 82.777344 52.042969 86.367188 49.925781 C 89.699219 47.960938 92.617188 48.976562 95.589844 48.976562 C 103.558594 48.976562 105.789062 45.972656 105.402344 42.3125 C 105.203125 40.417969 102.308594 36.476562 94.933594 36.601562 C 91.957031 36.652344 86.367188 37.554688 83.472656 39.058594 Z M 83.472656 39.058594 "/>
<path style=" stroke:none;fill-rule:nonzero;fill:rgb(35.294118%,25.490196%,27.45098%);fill-opacity:1;" d="M 82.917969 48.140625 C 82.917969 48.140625 81.90625 44.152344 84.878906 40.019531 C 78.515625 44.722656 79.707031 52.78125 79.707031 52.78125 C 81.605469 54.683594 81.605469 59.445312 81.605469 59.445312 L 83.511719 57.539062 C 83.511719 57.539062 82.777344 52.042969 86.367188 49.925781 C 89.699219 47.960938 92.613281 48.976562 95.589844 48.976562 C 96.886719 48.976562 98.011719 48.886719 99.019531 48.738281 C 92.878906 48.945312 89.261719 44.292969 82.917969 48.140625 Z M 82.917969 48.140625 "/>
<path style=" stroke:none;fill-rule:nonzero;fill:rgb(90.196078%,68.627451%,47.058824%);fill-opacity:1;" d="M 80.714844 59.035156 L 81.792969 63.335938 C 81.917969 63.84375 82.378906 64.203125 82.902344 64.203125 C 83.480469 64.203125 83.964844 63.773438 84.039062 63.199219 L 84.585938 58.800781 C 84.734375 57.628906 83.816406 56.589844 82.632812 56.589844 L 82.628906 56.589844 C 81.34375 56.589844 80.40625 57.792969 80.714844 59.035156 Z M 80.714844 59.035156 "/>
<path style=" stroke:none;fill-rule:nonzero;fill:rgb(89.411765%,91.764706%,96.470588%);fill-opacity:1;" d="M 106.355469 89.902344 L 101.597656 89.902344 C 100.542969 89.902344 99.695312 90.753906 99.695312 91.804688 L 108.257812 91.804688 C 108.257812 90.753906 107.40625 89.902344 106.355469 89.902344 Z M 106.355469 89.902344 "/>
<path style=" stroke:none;fill-rule:nonzero;fill:rgb(41.176471%,29.411765%,29.411765%);fill-opacity:1;" d="M 59.878906 13.4375 C 27.234375 13.4375 30.855469 53.136719 31.003906 81.898438 C 31.007812 82.984375 31.578125 83.964844 32.511719 84.527344 C 36.125 86.707031 46.058594 91.804688 59.878906 91.804688 C 73.695312 91.804688 83.628906 86.707031 87.246094 84.527344 C 88.175781 83.964844 88.746094 82.984375 88.75 81.898438 C 88.898438 53.132812 92.519531 13.4375 59.878906 13.4375 Z M 59.878906 13.4375 "/>
<path style=" stroke:none;fill-rule:nonzero;fill:rgb(35.294118%,25.490196%,27.45098%);fill-opacity:1;" d="M 57.773438 13.523438 C 27.414062 15.226562 30.859375 53.773438 31.003906 81.898438 C 31.007812 82.984375 31.578125 83.964844 32.511719 84.523438 C 36.125 86.707031 46.058594 91.804688 59.878906 91.804688 L 68.125 34.0625 "/>
<path style=" stroke:none;fill-rule:nonzero;fill:rgb(41.176471%,29.411765%,29.411765%);fill-opacity:1;" d="M 59.878906 13.4375 C 41.316406 13.4375 40.027344 35.867188 40.027344 35.867188 C 50.722656 34.0625 57.296875 38.574219 68.125 34.0625 L 59.878906 91.804688 C 73.695312 91.804688 83.628906 86.707031 87.246094 84.527344 C 88.175781 83.964844 88.746094 82.984375 88.75 81.898438 C 88.898438 53.132812 92.519531 13.4375 59.878906 13.4375 Z M 59.878906 13.4375 "/>
<path style=" stroke:none;fill-rule:nonzero;fill:rgb(47.058824%,33.333333%,31.372549%);fill-opacity:1;" d="M 88.75 81.898438 C 88.878906 57.183594 91.546875 24.417969 71.589844 15.679688 C 71.242188 17.492188 70.613281 22.535156 72.25 25.816406 C 76.375 34.0625 80.496094 34.0625 84.625 40.25 C 88.746094 62.933594 76.742188 87.011719 72.757812 90.289062 C 79.820312 88.609375 84.882812 85.949219 87.246094 84.527344 C 88.175781 83.964844 88.746094 82.984375 88.75 81.898438 Z M 88.75 81.898438 "/>
<path style=" stroke:none;fill-rule:nonzero;fill:rgb(90.196078%,68.627451%,47.058824%);fill-opacity:1;" d="M 91.125 88.15625 L 72.726562 80.488281 C 71.1875 79.847656 70.1875 78.347656 70.1875 76.683594 L 70.1875 71.699219 L 49.566406 71.699219 L 49.566406 76.683594 C 49.566406 78.347656 48.5625 79.847656 47.027344 80.488281 L 28.625 88.15625 C 26.320312 89.117188 24.816406 91.367188 24.816406 93.867188 L 24.816406 102.113281 C 24.816406 104.394531 26.667969 106.242188 28.945312 106.242188 L 90.8125 106.242188 C 93.085938 106.242188 94.933594 104.394531 94.933594 102.113281 L 94.933594 93.867188 C 94.933594 91.367188 93.433594 89.117188 91.125 88.15625 Z M 91.125 88.15625 "/>
<path style=" stroke:none;fill-rule:nonzero;fill:rgb(70.588235%,88.235294%,98.039216%);fill-opacity:1;" d="M 91.125 88.15625 L 73.335938 80.742188 L 59.878906 86.550781 L 46.417969 80.742188 L 28.625 88.15625 C 26.320312 89.117188 24.816406 91.367188 24.816406 93.867188 L 24.816406 102.113281 C 24.816406 104.394531 26.667969 106.242188 28.945312 106.242188 L 90.8125 106.242188 C 93.085938 106.242188 94.933594 104.394531 94.933594 102.113281 L 94.933594 93.867188 C 94.933594 91.367188 93.433594 89.117188 91.125 88.15625 Z M 91.125 88.15625 "/>
<path style=" stroke:none;fill-rule:nonzero;fill:rgb(82.352941%,60.784314%,43.137255%);fill-opacity:1;" d="M 70.1875 71.699219 L 49.566406 71.699219 L 49.566406 76.683594 C 49.566406 78.347656 48.5625 79.847656 47.027344 80.488281 L 44.152344 81.683594 C 66.144531 87.296875 70.1875 71.699219 70.1875 71.699219 Z M 70.1875 71.699219 "/>
<path style=" stroke:none;fill-rule:nonzero;fill:rgb(62.745098%,82.352941%,94.117647%);fill-opacity:1;" d="M 34.871094 96.132812 L 26.59375 89.546875 C 25.484375 90.683594 24.816406 92.214844 24.816406 93.867188 L 24.816406 102.113281 C 24.816406 104.394531 26.667969 106.238281 28.945312 106.238281 L 37.191406 106.238281 L 37.191406 100.964844 C 37.191406 99.085938 36.335938 97.308594 34.871094 96.132812 Z M 34.871094 96.132812 "/>
<path style=" stroke:none;fill-rule:nonzero;fill:rgb(62.745098%,82.352941%,94.117647%);fill-opacity:1;" d="M 94.933594 102.113281 L 94.933594 93.867188 C 94.933594 92.230469 94.28125 90.707031 93.1875 89.578125 L 84.882812 96.132812 C 83.414062 97.308594 82.5625 99.085938 82.5625 100.964844 L 82.5625 106.238281 L 90.8125 106.238281 C 93.085938 106.242188 94.933594 104.394531 94.933594 102.113281 Z M 94.933594 102.113281 "/>
<path style=" stroke:none;fill-rule:nonzero;fill:rgb(62.745098%,82.352941%,94.117647%);fill-opacity:1;" d="M 59.878906 102.113281 C 58.738281 102.113281 57.816406 101.191406 57.816406 100.050781 L 57.816406 86.558594 L 61.9375 86.558594 L 61.9375 100.054688 C 61.9375 101.191406 61.015625 102.113281 59.878906 102.113281 Z M 59.878906 102.113281 "/>
<path style=" stroke:none;fill-rule:nonzero;fill:rgb(62.745098%,82.352941%,94.117647%);fill-opacity:1;" d="M 59.878906 86.550781 L 48.074219 77.699219 C 47.3125 77.132812 46.234375 77.316406 45.710938 78.105469 L 43.378906 81.601562 L 50.613281 91.734375 C 51.164062 92.503906 52.25 92.652344 52.988281 92.0625 Z M 59.878906 86.550781 "/>
<path style=" stroke:none;fill-rule:nonzero;fill:rgb(62.745098%,82.352941%,94.117647%);fill-opacity:1;" d="M 59.878906 86.550781 L 71.679688 77.699219 C 72.4375 77.132812 73.515625 77.316406 74.042969 78.105469 L 76.375 81.601562 L 69.136719 91.734375 C 68.589844 92.503906 67.503906 92.652344 66.765625 92.0625 Z M 59.878906 86.550781 "/>
<path style=" stroke:none;fill-rule:nonzero;fill:rgb(94.117647%,75.294118%,52.941176%);fill-opacity:1;" d="M 70.1875 32 C 59.878906 42.3125 39.640625 34.0625 39.640625 50.558594 L 40.921875 62.714844 C 41.167969 65.433594 42.746094 67.851562 45.128906 69.179688 L 56.875 75.703125 C 58.742188 76.738281 61.011719 76.738281 62.882812 75.703125 L 74.621094 69.179688 C 77.011719 67.851562 78.585938 65.433594 78.832031 62.714844 L 80.3125 48.28125 C 80.417969 47.253906 80.4375 46.222656 80.40625 45.191406 C 79.632812 39.945312 72.25 36.125 70.1875 32 Z M 70.1875 32 "/>
<path style=" stroke:none;fill-rule:nonzero;fill:rgb(90.196078%,68.627451%,47.058824%);fill-opacity:1;" d="M 39.640625 50.558594 L 40.921875 62.714844 C 41.167969 65.433594 42.746094 67.851562 45.128906 69.179688 L 56.875 75.703125 C 58.167969 76.421875 59.65625 76.609375 61.070312 76.328125 C 61.070312 76.328125 55.148438 74.53125 51.628906 64.996094 C 50.550781 62.074219 49.050781 46.605469 50.339844 44.71875 C 52.886719 40.980469 67.097656 40.589844 71.292969 33.660156 C 71.085938 33.40625 70.894531 33.144531 70.71875 32.886719 C 70.707031 32.867188 70.6875 32.847656 70.675781 32.824219 C 70.488281 32.550781 70.324219 32.277344 70.1875 32 C 59.878906 42.3125 39.640625 34.0625 39.640625 50.558594 Z M 39.640625 50.558594 "/>
<path style=" stroke:none;fill-rule:nonzero;fill:rgb(62.745098%,82.352941%,94.117647%);fill-opacity:1;" d="M 76.375 102.113281 L 68.125 102.113281 C 66.988281 102.113281 66.0625 103.039062 66.0625 104.179688 L 66.0625 106.238281 L 78.4375 106.238281 L 78.4375 104.179688 C 78.4375 103.039062 77.511719 102.113281 76.375 102.113281 Z M 76.375 102.113281 "/>
</g>
</svg>
