<svg id="Capa_1" enable-background="new 0 0 512 512" height="512" viewBox="0 0 512 512" width="512" xmlns="http://www.w3.org/2000/svg"><path d="m103.018 154.071 266.993-95.868c8.507-3.055 17.809 1.813 20.148 10.544l13.672 52.814z" fill="#6daa71"/><path d="m403.831 121.561-30.442 3.286-14.134-56.104c-.577-2.132-1.566-4.038-2.854-5.656l13.609-4.883c8.509-3.06 17.812 1.813 20.15 10.539z" fill="#568456"/><path d="m103.018 155.788 316.556-61.109c7.961-1.537 15.757 3.341 17.855 11.173l12.624 47.113z" fill="#91ce96"/><path d="m450.055 152.961h-30.905l-12.63-47.11c-.834-3.111-2.565-5.759-4.852-7.716l17.905-3.461c7.963-1.535 15.762 3.348 17.853 11.177z" fill="#6daa71"/><path d="m439.887 454.712h-326.567c-22.758 0-41.207-18.449-41.207-41.207v-221.489c0-22.758 18.449-41.207 41.207-41.207h326.567c22.758 0 41.207 18.449 41.207 41.207v221.489c.001 22.758-18.449 41.207-41.207 41.207z" fill="#cca385"/><path d="m434.736 181.714h-316.265c-8.534 0-15.453 6.918-15.453 15.453v211.187c0 8.534 6.918 15.453 15.453 15.453h316.266c8.534 0 15.453-6.918 15.453-15.453v-211.187c-.001-8.535-6.919-15.453-15.454-15.453z" fill="#9b7861"/><path d="m450.189 197.166v211.187c0 8.53-6.923 15.453-15.453 15.453h-30.905c8.53 0 15.453-6.923 15.453-15.453v-211.187c0-8.53-6.923-15.453-15.453-15.453h30.905c8.53.001 15.453 6.923 15.453 15.453z" fill="#7c5e4a"/><path d="m98.382 454.712c-54.335 0-98.382-44.047-98.382-98.382 0-54.335 44.047-98.382 98.382-98.382 54.335 0 98.382 44.047 98.382 98.382.001 54.335-44.047 98.382-98.382 98.382z" fill="#ffd576"/><path d="m98.382 423.807c-37.267 0-67.477-30.21-67.477-67.477 0-37.266 30.21-67.477 67.477-67.477 37.266 0 67.477 30.21 67.477 67.477 0 37.266-30.21 67.477-67.477 67.477z" fill="#efba50"/><path d="m165.859 356.329c0 18.636-7.551 35.5-19.769 47.708-12.208 12.218-29.082 19.769-47.708 19.769-5.316 0-10.487-.618-15.453-1.782 12.424-2.905 23.529-9.251 32.255-17.987 12.218-12.208 19.769-29.072 19.769-47.708s-7.551-35.5-19.769-47.708c-8.726-8.736-19.831-15.082-32.255-17.987 4.965-1.164 10.137-1.782 15.453-1.782 18.626 0 35.5 7.551 47.708 19.769 12.218 12.208 19.769 29.072 19.769 47.708z" fill="#ea9c3f"/><path d="m496.547 336.241h-80.354c-11.379 0-20.604-9.225-20.604-20.604v-25.755c0-11.379 9.225-20.604 20.604-20.604h80.354c8.534 0 15.453 6.918 15.453 15.453v36.056c0 8.536-6.918 15.454-15.453 15.454z" fill="#ddd"/><path d="m512 284.732v36.056c0 8.53-6.923 15.453-15.453 15.453h-30.905c8.53 0 15.453-6.923 15.453-15.453v-36.056c0-8.53-6.923-15.453-15.453-15.453h30.905c8.53 0 15.453 6.923 15.453 15.453z" fill="#bfbfbf"/><path d="m435.767 315.637h-10.302c-4.267 0-7.726-3.459-7.726-7.726v-10.302c0-4.267 3.459-7.726 7.726-7.726h10.302c4.267 0 7.726 3.459 7.726 7.726v10.302c0 4.267-3.459 7.726-7.726 7.726z" fill="#bfbfbf"/><g fill="#7c5e4a"><path d="m242.608 228.587h-25.755c-4.267 0-7.726-3.459-7.726-7.726s3.459-7.726 7.726-7.726h25.755c4.267 0 7.726 3.459 7.726 7.726s-3.459 7.726-7.726 7.726z"/><path d="m299.268 228.587h-25.755c-4.267 0-7.726-3.459-7.726-7.726s3.459-7.726 7.726-7.726h25.755c4.267 0 7.726 3.459 7.726 7.726s-3.459 7.726-7.726 7.726z"/><path d="m355.928 228.587h-25.755c-4.267 0-7.726-3.459-7.726-7.726s3.459-7.726 7.726-7.726h25.755c4.267 0 7.726 3.459 7.726 7.726s-3.459 7.726-7.726 7.726z"/><path d="m412.588 228.587h-25.755c-4.267 0-7.726-3.459-7.726-7.726s3.459-7.726 7.726-7.726h25.755c4.267 0 7.726 3.459 7.726 7.726s-3.459 7.726-7.726 7.726z"/><path d="m243.638 395.476h-25.755c-4.267 0-7.726-3.459-7.726-7.726s3.459-7.726 7.726-7.726h25.755c4.267 0 7.726 3.459 7.726 7.726s-3.459 7.726-7.726 7.726z"/><path d="m300.298 395.476h-25.755c-4.267 0-7.726-3.459-7.726-7.726s3.459-7.726 7.726-7.726h25.755c4.267 0 7.726 3.459 7.726 7.726s-3.459 7.726-7.726 7.726z"/><path d="m356.958 395.476h-25.755c-4.267 0-7.726-3.459-7.726-7.726s3.459-7.726 7.726-7.726h25.755c4.267 0 7.726 3.459 7.726 7.726s-3.459 7.726-7.726 7.726z"/><path d="m413.618 395.476h-25.755c-4.267 0-7.726-3.459-7.726-7.726s3.459-7.726 7.726-7.726h25.755c4.267 0 7.726 3.459 7.726 7.726s-3.459 7.726-7.726 7.726z"/><path d="m185.948 228.587h-25.755c-4.267 0-7.726-3.459-7.726-7.726s3.459-7.726 7.726-7.726h25.755c4.267 0 7.726 3.459 7.726 7.726s-3.459 7.726-7.726 7.726z"/><path d="m137.014 220.861c0 4.265-3.461 7.726-7.726 7.726h-25.755c-.175 0-.34-.01-.515-.031v-15.391c.175-.021.34-.031.515-.031h25.755c4.265 0 7.726 3.462 7.726 7.727z"/></g></svg>