<?xml version="1.0" encoding="UTF-8"?>
<svg xmlns="http://www.w3.org/2000/svg" xmlns:xlink="http://www.w3.org/1999/xlink" width="120pt" height="120pt" viewBox="0 0 120 120" version="1.1">
<g id="surface1">
<path style=" stroke:none;fill-rule:nonzero;fill:rgb(5.490196%,57.647059%,27.843137%);fill-opacity:1;" d="M 114.242188 76.160156 L 5.4375 76.160156 C 2.445312 76.160156 0 73.710938 0 70.722656 L 0 10.878906 C 0 7.886719 2.445312 5.4375 5.4375 5.4375 L 114.242188 5.4375 C 117.234375 5.4375 119.679688 7.886719 119.679688 10.878906 L 119.679688 70.722656 C 119.679688 73.710938 117.234375 76.160156 114.242188 76.160156 Z M 114.242188 76.160156 "/>
<path style=" stroke:none;fill-rule:nonzero;fill:rgb(5.098039%,53.72549%,26.666667%);fill-opacity:1;" d="M 100.640625 54.402344 C 94.386719 54.402344 88.671875 57.394531 85.410156 62.285156 C 82.6875 60.929688 79.695312 59.839844 76.160156 59.839844 C 66.640625 59.839844 58.753906 66.914062 57.394531 76.160156 L 114.242188 76.160156 C 116.960938 76.160156 119.136719 74.253906 119.679688 71.539062 C 118.59375 62.015625 110.433594 54.402344 100.640625 54.402344 Z M 100.640625 54.402344 "/>
<path style=" stroke:none;fill-rule:nonzero;fill:rgb(23.137255%,70.980392%,29.019608%);fill-opacity:1;" d="M 103.363281 70.722656 L 16.320312 70.722656 C 16.320312 64.738281 11.421875 59.839844 5.4375 59.839844 L 5.4375 21.761719 C 11.421875 21.761719 16.320312 16.863281 16.320312 10.878906 L 103.363281 10.878906 C 103.363281 16.863281 108.257812 21.761719 114.242188 21.761719 L 114.242188 59.839844 C 108.257812 59.839844 103.363281 64.738281 103.363281 70.722656 Z M 103.363281 70.722656 "/>
<path style=" stroke:none;fill-rule:nonzero;fill:rgb(5.490196%,57.647059%,27.843137%);fill-opacity:1;" d="M 100.640625 54.402344 C 94.386719 54.402344 88.671875 57.394531 85.410156 62.285156 C 82.6875 60.929688 79.695312 59.839844 76.160156 59.839844 C 68.546875 59.839844 62.015625 64.191406 59.023438 70.722656 L 103.363281 70.722656 C 103.363281 64.738281 107.984375 60.113281 113.96875 59.839844 C 110.433594 56.578125 105.808594 54.402344 100.640625 54.402344 Z M 100.640625 54.402344 "/>
<path style=" stroke:none;fill-rule:nonzero;fill:rgb(5.490196%,57.647059%,27.843137%);fill-opacity:1;" d="M 81.601562 40.800781 C 81.601562 27.28125 71.859375 16.320312 59.839844 16.320312 C 47.824219 16.320312 38.078125 27.28125 38.078125 40.800781 C 38.078125 54.320312 47.824219 65.277344 59.839844 65.277344 C 71.859375 65.277344 81.601562 54.320312 81.601562 40.800781 Z M 81.601562 40.800781 "/>
<path style=" stroke:none;fill-rule:nonzero;fill:rgb(5.490196%,57.647059%,27.843137%);fill-opacity:1;" d="M 32.640625 40.800781 C 32.640625 43.804688 30.203125 46.238281 27.199219 46.238281 C 24.195312 46.238281 21.761719 43.804688 21.761719 40.800781 C 21.761719 37.796875 24.195312 35.359375 27.199219 35.359375 C 30.203125 35.359375 32.640625 37.796875 32.640625 40.800781 Z M 32.640625 40.800781 "/>
<path style=" stroke:none;fill-rule:nonzero;fill:rgb(5.490196%,57.647059%,27.843137%);fill-opacity:1;" d="M 97.921875 40.800781 C 97.921875 43.804688 95.484375 46.238281 92.480469 46.238281 C 89.476562 46.238281 87.039062 43.804688 87.039062 40.800781 C 87.039062 37.796875 89.476562 35.359375 92.480469 35.359375 C 95.484375 35.359375 97.921875 37.796875 97.921875 40.800781 Z M 97.921875 40.800781 "/>
<path style=" stroke:none;fill-rule:nonzero;fill:rgb(53.72549%,78.039216%,38.823529%);fill-opacity:1;" d="M 62.5625 38.078125 L 57.121094 38.078125 C 55.488281 38.078125 54.402344 36.992188 54.402344 35.359375 C 54.402344 33.730469 55.488281 32.640625 57.121094 32.640625 L 65.277344 32.640625 C 66.914062 32.640625 68 31.554688 68 29.921875 C 68 28.285156 66.914062 27.199219 65.277344 27.199219 L 62.5625 27.199219 C 62.5625 25.570312 61.472656 24.480469 59.839844 24.480469 C 58.207031 24.480469 57.121094 25.570312 57.121094 27.199219 C 52.496094 27.199219 48.960938 30.738281 48.960938 35.363281 C 48.960938 39.984375 52.496094 43.519531 57.121094 43.519531 L 62.5625 43.519531 C 64.191406 43.519531 65.277344 44.609375 65.277344 46.238281 C 65.277344 47.871094 64.191406 48.960938 62.5625 48.960938 L 54.402344 48.960938 C 52.769531 48.960938 51.679688 50.046875 51.679688 51.679688 C 51.679688 53.3125 52.769531 54.402344 54.402344 54.402344 L 57.121094 54.402344 C 57.121094 56.03125 58.207031 57.121094 59.839844 57.121094 C 61.472656 57.121094 62.5625 56.03125 62.5625 54.402344 C 67.183594 54.402344 70.722656 50.863281 70.722656 46.238281 C 70.722656 41.617188 67.183594 38.078125 62.5625 38.078125 Z M 62.5625 38.078125 "/>
<path style=" stroke:none;fill-rule:nonzero;fill:rgb(100%,79.215686%,36.470588%);fill-opacity:1;" d="M 89.761719 78.878906 C 89.761719 89.394531 81.238281 97.921875 70.722656 97.921875 C 60.203125 97.921875 51.679688 89.394531 51.679688 78.878906 C 51.679688 68.363281 60.203125 59.839844 70.722656 59.839844 C 81.238281 59.839844 89.761719 68.363281 89.761719 78.878906 Z M 89.761719 78.878906 "/>
<path style=" stroke:none;fill-rule:nonzero;fill:rgb(96.470588%,70.980392%,27.058824%);fill-opacity:1;" d="M 114.242188 73.441406 C 114.242188 83.957031 105.714844 92.480469 95.199219 92.480469 C 84.683594 92.480469 76.160156 83.957031 76.160156 73.441406 C 76.160156 62.925781 84.683594 54.402344 95.199219 54.402344 C 105.714844 54.402344 114.242188 62.925781 114.242188 73.441406 Z M 114.242188 73.441406 "/>
<path style=" stroke:none;fill-rule:nonzero;fill:rgb(100%,79.607843%,35.686275%);fill-opacity:1;" d="M 95.199219 54.402344 C 84.59375 54.402344 76.160156 62.832031 76.160156 73.441406 C 76.160156 84.046875 84.59375 92.480469 95.199219 92.480469 C 105.808594 92.480469 114.242188 84.046875 114.242188 73.441406 C 114.242188 62.832031 105.808594 54.402344 95.199219 54.402344 Z M 95.199219 87.039062 C 87.585938 87.039062 81.601562 81.054688 81.601562 73.441406 C 81.601562 65.824219 87.585938 59.839844 95.199219 59.839844 C 102.816406 59.839844 108.800781 65.824219 108.800781 73.441406 C 108.800781 81.054688 102.816406 87.039062 95.199219 87.039062 Z M 95.199219 87.039062 "/>
<path style=" stroke:none;fill-rule:nonzero;fill:rgb(96.470588%,70.980392%,27.058824%);fill-opacity:1;" d="M 95.199219 92.207031 C 105.808594 92.480469 114.242188 83.777344 114.242188 73.441406 L 113.96875 73.441406 C 112.609375 73.441406 111.519531 74.53125 111.25 75.886719 C 110.703125 79.695312 108.800781 83.230469 106.078125 85.679688 C 103.902344 87.855469 100.914062 89.214844 97.648438 89.761719 C 96.289062 89.761719 95.199219 90.847656 95.199219 92.207031 Z M 95.199219 92.207031 "/>
<path style=" stroke:none;fill-rule:nonzero;fill:rgb(100%,88.627451%,47.843137%);fill-opacity:1;" d="M 95.199219 54.671875 C 84.59375 54.402344 76.160156 63.105469 76.160156 73.441406 L 76.433594 73.441406 C 77.792969 73.441406 78.878906 72.355469 79.152344 70.992188 C 79.695312 67.183594 81.601562 63.648438 84.320312 61.199219 C 86.496094 59.023438 89.488281 57.664062 92.753906 57.121094 C 94.113281 57.121094 95.199219 56.03125 95.199219 54.671875 Z M 95.199219 54.671875 "/>
<path style=" stroke:none;fill-rule:nonzero;fill:rgb(94.509804%,60%,12.54902%);fill-opacity:1;" d="M 83.503906 75.347656 C 83.503906 67.730469 89.488281 61.746094 97.105469 61.746094 C 100.371094 61.746094 103.363281 62.832031 105.808594 65.007812 C 103.085938 61.746094 99.554688 59.839844 95.199219 59.839844 C 87.585938 59.839844 81.601562 65.824219 81.601562 73.441406 C 81.601562 77.792969 83.503906 81.328125 86.496094 83.777344 C 84.59375 81.601562 83.503906 78.609375 83.503906 75.347656 Z M 83.503906 75.347656 "/>
<path style=" stroke:none;fill-rule:nonzero;fill:rgb(100%,79.607843%,35.686275%);fill-opacity:1;" d="M 103.363281 81.871094 C 103.085938 81.871094 102.816406 81.871094 102.546875 81.601562 C 102 81.054688 102 80.238281 102.546875 79.695312 C 104.175781 78.0625 104.992188 75.617188 104.992188 73.441406 C 104.992188 72.625 105.539062 72.078125 106.355469 72.078125 C 107.167969 72.078125 107.710938 72.625 107.710938 73.441406 C 107.710938 76.433594 106.625 79.425781 104.722656 81.601562 C 104.175781 81.871094 103.632812 81.871094 103.363281 81.871094 Z M 103.363281 81.871094 "/>
<path style=" stroke:none;fill-rule:nonzero;fill:rgb(94.509804%,60%,12.54902%);fill-opacity:1;" d="M 95.199219 81.601562 C 93.570312 81.601562 92.480469 80.511719 92.480469 78.878906 L 92.480469 68 C 92.480469 66.371094 93.570312 65.28125 95.199219 65.28125 C 96.832031 65.28125 97.921875 66.371094 97.921875 68 L 97.921875 78.878906 C 97.921875 80.511719 96.832031 81.601562 95.199219 81.601562 Z M 95.199219 81.601562 "/>
<path style=" stroke:none;fill-rule:nonzero;fill:rgb(94.509804%,60%,12.54902%);fill-opacity:1;" d="M 105.265625 89.488281 C 103.363281 82.6875 98.464844 77.246094 92.207031 74.800781 C 91.121094 68.546875 87.039062 63.105469 81.871094 59.839844 C 78.609375 63.378906 76.433594 68 76.433594 73.167969 C 76.433594 83.777344 84.863281 92.207031 95.472656 92.207031 C 99.007812 92.480469 102.273438 91.394531 105.265625 89.488281 Z M 105.265625 89.488281 "/>
<path style=" stroke:none;fill-rule:nonzero;fill:rgb(90.588235%,53.333333%,14.509804%);fill-opacity:1;" d="M 86.496094 83.777344 C 84.59375 81.328125 83.230469 78.339844 83.230469 75.070312 C 83.230469 71.261719 84.863281 67.730469 87.585938 65.277344 C 87.039062 64.464844 86.496094 63.921875 85.953125 63.378906 C 83.230469 65.824219 81.601562 69.363281 81.601562 73.441406 C 81.601562 77.792969 83.503906 81.328125 86.496094 83.777344 Z M 86.496094 83.777344 "/>
<path style=" stroke:none;fill-rule:nonzero;fill:rgb(90.588235%,53.333333%,14.509804%);fill-opacity:1;" d="M 92.480469 75.070312 L 92.480469 78.878906 C 92.480469 80.511719 93.570312 81.601562 95.199219 81.601562 C 96.832031 81.601562 97.921875 80.511719 97.921875 78.878906 L 97.921875 78.339844 C 96.289062 76.976562 94.386719 75.886719 92.480469 75.070312 Z M 92.480469 75.070312 "/>
<path style=" stroke:none;fill-rule:nonzero;fill:rgb(96.470588%,70.980392%,27.058824%);fill-opacity:1;" d="M 105.265625 89.488281 C 104.722656 87.585938 104.175781 85.953125 103.085938 84.320312 C 100.914062 85.953125 98.191406 87.039062 95.199219 87.039062 C 87.585938 87.039062 81.601562 81.054688 81.601562 73.441406 C 81.601562 69.359375 83.230469 65.824219 85.953125 63.375 C 84.59375 62.015625 83.230469 60.929688 81.601562 60.113281 C 78.339844 63.648438 76.160156 68.269531 76.160156 73.4375 C 76.160156 84.046875 84.59375 92.480469 95.199219 92.480469 C 99.007812 92.480469 102.273438 91.394531 105.265625 89.488281 Z M 105.265625 89.488281 "/>
<path style=" stroke:none;fill-rule:nonzero;fill:rgb(94.509804%,60%,12.54902%);fill-opacity:1;" d="M 104.449219 87.039062 C 102.546875 88.402344 100.09375 89.214844 97.648438 89.761719 C 96.289062 90.03125 95.199219 91.121094 95.199219 92.480469 C 99.007812 92.480469 102.273438 91.394531 105.265625 89.488281 C 104.992188 88.671875 104.722656 87.855469 104.449219 87.039062 Z M 104.449219 87.039062 "/>
<path style=" stroke:none;fill-rule:nonzero;fill:rgb(100%,79.607843%,35.686275%);fill-opacity:1;" d="M 81.601562 60.113281 C 78.339844 63.648438 76.160156 68.269531 76.160156 73.441406 L 76.433594 73.441406 C 77.792969 73.441406 78.878906 72.355469 79.152344 70.992188 C 79.695312 67.183594 81.601562 63.921875 84.046875 61.472656 C 83.230469 61.199219 82.417969 60.65625 81.601562 60.113281 Z M 81.601562 60.113281 "/>
<path style=" stroke:none;fill-rule:nonzero;fill:rgb(96.470588%,70.980392%,27.058824%);fill-opacity:1;" d="M 89.761719 78.878906 C 89.761719 89.394531 81.238281 97.921875 70.722656 97.921875 C 60.203125 97.921875 51.679688 89.394531 51.679688 78.878906 C 51.679688 68.363281 60.203125 59.839844 70.722656 59.839844 C 81.238281 59.839844 89.761719 68.363281 89.761719 78.878906 Z M 89.761719 78.878906 "/>
<path style=" stroke:none;fill-rule:nonzero;fill:rgb(94.509804%,60%,12.54902%);fill-opacity:1;" d="M 68 92.480469 C 68 94.386719 68.269531 96.015625 68.816406 97.921875 C 69.363281 97.921875 70.175781 97.921875 70.722656 97.921875 C 81.328125 97.921875 89.761719 89.488281 89.761719 78.878906 C 89.761719 76.976562 89.488281 75.347656 88.945312 73.441406 C 88.402344 73.441406 87.585938 73.441406 87.039062 73.441406 C 76.433594 73.441406 68 81.871094 68 92.480469 Z M 68 92.480469 "/>
<path style=" stroke:none;fill-rule:nonzero;fill:rgb(100%,79.607843%,35.686275%);fill-opacity:1;" d="M 70.722656 59.839844 C 60.113281 59.839844 51.679688 68.269531 51.679688 78.878906 C 51.679688 89.488281 60.113281 97.921875 70.722656 97.921875 C 81.328125 97.921875 89.761719 89.488281 89.761719 78.878906 C 89.761719 68.273438 81.328125 59.839844 70.722656 59.839844 Z M 70.722656 92.480469 C 63.105469 92.480469 57.121094 86.496094 57.121094 78.878906 C 57.121094 71.261719 63.105469 65.277344 70.722656 65.277344 C 78.339844 65.277344 84.320312 71.261719 84.320312 78.878906 C 84.320312 86.496094 78.339844 92.480469 70.722656 92.480469 Z M 70.722656 92.480469 "/>
<path style=" stroke:none;fill-rule:nonzero;fill:rgb(96.470588%,70.980392%,27.058824%);fill-opacity:1;" d="M 70.722656 97.648438 C 81.328125 97.921875 89.761719 89.214844 89.761719 78.878906 L 89.488281 78.878906 C 88.128906 78.878906 87.039062 79.96875 86.769531 81.328125 C 86.222656 85.136719 84.320312 88.671875 81.601562 91.121094 C 79.425781 93.296875 76.433594 94.65625 73.167969 95.203125 C 71.808594 95.199219 70.722656 96.289062 70.722656 97.648438 Z M 70.722656 97.648438 "/>
<path style=" stroke:none;fill-rule:nonzero;fill:rgb(100%,88.627451%,47.843137%);fill-opacity:1;" d="M 70.722656 60.113281 C 60.113281 59.839844 51.679688 68.546875 51.679688 78.878906 L 51.953125 78.878906 C 53.3125 78.878906 54.402344 77.792969 54.671875 76.433594 C 55.214844 72.625 57.121094 69.085938 59.839844 66.640625 C 62.015625 64.464844 65.007812 63.105469 68.269531 62.5625 C 69.632812 62.5625 70.722656 61.472656 70.722656 60.113281 Z M 70.722656 60.113281 "/>
<path style=" stroke:none;fill-rule:nonzero;fill:rgb(94.509804%,60%,12.54902%);fill-opacity:1;" d="M 59.023438 80.785156 C 59.023438 73.167969 65.007812 67.183594 72.625 67.183594 C 75.886719 67.183594 78.878906 68.269531 81.328125 70.449219 C 78.609375 67.183594 75.070312 65.277344 70.722656 65.277344 C 63.105469 65.277344 57.121094 71.261719 57.121094 78.878906 C 57.121094 83.230469 59.023438 86.769531 62.015625 89.214844 C 60.113281 87.039062 59.023438 84.046875 59.023438 80.785156 Z M 59.023438 80.785156 "/>
<path style=" stroke:none;fill-rule:nonzero;fill:rgb(100%,79.607843%,35.686275%);fill-opacity:1;" d="M 78.878906 87.3125 C 78.609375 87.3125 78.339844 87.3125 78.0625 87.039062 C 77.519531 86.496094 77.519531 85.679688 78.0625 85.136719 C 79.695312 83.503906 80.511719 81.054688 80.511719 78.878906 C 80.511719 78.0625 81.054688 77.519531 81.871094 77.519531 C 82.6875 77.519531 83.230469 78.0625 83.230469 78.878906 C 83.230469 81.871094 82.144531 84.863281 80.238281 87.039062 C 79.695312 87.3125 79.152344 87.3125 78.878906 87.3125 Z M 78.878906 87.3125 "/>
<path style=" stroke:none;fill-rule:nonzero;fill:rgb(94.509804%,60%,12.54902%);fill-opacity:1;" d="M 70.722656 87.039062 C 69.085938 87.039062 68 85.953125 68 84.320312 L 68 73.441406 C 68 71.808594 69.085938 70.722656 70.722656 70.722656 C 72.355469 70.722656 73.441406 71.808594 73.441406 73.441406 L 73.441406 84.320312 C 73.441406 85.953125 72.355469 87.039062 70.722656 87.039062 Z M 70.722656 87.039062 "/>
<path style=" stroke:none;fill-rule:nonzero;fill:rgb(96.470588%,70.980392%,27.058824%);fill-opacity:1;" d="M 83.230469 73.710938 C 83.777344 75.347656 84.320312 76.976562 84.320312 78.878906 C 84.320312 86.496094 78.339844 92.480469 70.722656 92.480469 C 69.902344 92.480469 68.816406 92.480469 68 92.207031 L 68 92.480469 C 68 94.386719 68.273438 96.015625 68.816406 97.921875 C 69.363281 97.921875 70.175781 97.921875 70.722656 97.921875 C 81.328125 97.921875 89.761719 89.488281 89.761719 78.878906 C 89.761719 76.976562 89.488281 75.347656 88.945312 73.441406 C 88.402344 73.441406 87.585938 73.441406 87.039062 73.441406 C 85.679688 73.441406 84.59375 73.441406 83.230469 73.710938 Z M 83.230469 73.710938 "/>
<path style=" stroke:none;fill-rule:nonzero;fill:rgb(96.470588%,70.980392%,27.058824%);fill-opacity:1;" d="M 103.363281 95.199219 C 103.363281 105.714844 94.835938 114.242188 84.320312 114.242188 C 73.804688 114.242188 65.277344 105.714844 65.277344 95.199219 C 65.277344 84.683594 73.804688 76.160156 84.320312 76.160156 C 94.835938 76.160156 103.363281 84.683594 103.363281 95.199219 Z M 103.363281 95.199219 "/>
<path style=" stroke:none;fill-rule:nonzero;fill:rgb(100%,79.607843%,35.686275%);fill-opacity:1;" d="M 84.320312 76.160156 C 73.710938 76.160156 65.277344 84.59375 65.277344 95.199219 C 65.277344 105.808594 73.710938 114.242188 84.320312 114.242188 C 94.929688 114.242188 103.363281 105.808594 103.363281 95.199219 C 103.363281 84.59375 94.929688 76.160156 84.320312 76.160156 Z M 84.320312 108.800781 C 76.703125 108.800781 70.722656 102.816406 70.722656 95.199219 C 70.722656 87.585938 76.703125 81.601562 84.320312 81.601562 C 91.9375 81.601562 97.921875 87.585938 97.921875 95.199219 C 97.921875 102.816406 91.9375 108.800781 84.320312 108.800781 Z M 84.320312 108.800781 "/>
<path style=" stroke:none;fill-rule:nonzero;fill:rgb(96.470588%,70.980392%,27.058824%);fill-opacity:1;" d="M 84.320312 113.96875 C 94.929688 114.242188 103.363281 105.539062 103.363281 95.199219 L 103.085938 95.199219 C 101.730469 95.199219 100.640625 96.289062 100.371094 97.648438 C 99.824219 101.457031 97.921875 104.992188 95.199219 107.441406 C 93.023438 109.617188 90.03125 110.976562 86.769531 111.519531 C 85.410156 111.519531 84.320312 112.609375 84.320312 113.96875 Z M 84.320312 113.96875 "/>
<path style=" stroke:none;fill-rule:nonzero;fill:rgb(100%,88.627451%,47.843137%);fill-opacity:1;" d="M 84.320312 76.433594 C 73.710938 76.160156 65.277344 84.863281 65.277344 95.199219 L 65.554688 95.199219 C 66.914062 95.199219 68 94.113281 68.269531 92.753906 C 68.816406 88.945312 70.722656 85.410156 73.441406 82.960938 C 75.617188 80.785156 78.609375 79.425781 81.871094 78.878906 C 83.230469 78.878906 84.320312 77.792969 84.320312 76.433594 Z M 84.320312 76.433594 "/>
<path style=" stroke:none;fill-rule:nonzero;fill:rgb(94.509804%,60%,12.54902%);fill-opacity:1;" d="M 72.625 97.105469 C 72.625 89.488281 78.609375 83.503906 86.222656 83.503906 C 89.488281 83.503906 92.480469 84.59375 94.929688 86.769531 C 92.207031 83.503906 88.671875 81.601562 84.320312 81.601562 C 76.703125 81.601562 70.722656 87.585938 70.722656 95.199219 C 70.722656 99.554688 72.625 103.085938 75.617188 105.539062 C 73.710938 103.363281 72.625 100.371094 72.625 97.105469 Z M 72.625 97.105469 "/>
<path style=" stroke:none;fill-rule:nonzero;fill:rgb(100%,79.607843%,35.686275%);fill-opacity:1;" d="M 92.480469 103.632812 C 92.207031 103.632812 91.9375 103.632812 91.664062 103.363281 C 91.121094 102.816406 91.121094 102 91.664062 101.457031 C 93.296875 99.824219 94.113281 97.378906 94.113281 95.199219 C 94.113281 94.386719 94.65625 93.839844 95.472656 93.839844 C 96.289062 93.839844 96.832031 94.386719 96.832031 95.199219 C 96.832031 98.191406 95.746094 101.183594 93.839844 103.363281 C 93.296875 103.632812 92.753906 103.632812 92.480469 103.632812 Z M 92.480469 103.632812 "/>
<path style=" stroke:none;fill-rule:nonzero;fill:rgb(94.509804%,60%,12.54902%);fill-opacity:1;" d="M 84.320312 103.363281 C 82.6875 103.363281 81.601562 102.273438 81.601562 100.640625 L 81.601562 89.761719 C 81.601562 88.128906 82.6875 87.039062 84.320312 87.039062 C 85.953125 87.039062 87.039062 88.128906 87.039062 89.761719 L 87.039062 100.640625 C 87.039062 102.273438 85.953125 103.363281 84.320312 103.363281 Z M 84.320312 103.363281 "/>
</g>
</svg>
