<?xml version="1.0" encoding="UTF-8"?>
<svg xmlns="http://www.w3.org/2000/svg" xmlns:xlink="http://www.w3.org/1999/xlink" width="130pt" height="130pt" viewBox="0 0 130 130" version="1.1">
<g id="surface1">
<path style=" stroke:none;fill-rule:nonzero;fill:rgb(100%,79.607843%,48.627451%);fill-opacity:1;" d="M 70.378906 119.019531 L 17.328125 119.019531 C 12.253906 119.019531 8.140625 114.90625 8.140625 109.832031 L 8.140625 109.339844 C 8.140625 104.265625 12.253906 100.152344 17.328125 100.152344 L 70.378906 100.152344 C 75.453125 100.152344 79.566406 104.265625 79.566406 109.339844 L 79.566406 109.832031 C 79.566406 114.90625 75.453125 119.019531 70.378906 119.019531 Z M 70.378906 119.019531 "/>
<path style=" stroke:none;fill-rule:nonzero;fill:rgb(81.960784%,86.666667%,87.058824%);fill-opacity:1;" d="M 33.390625 119.042969 C 33.390625 122.535156 31.140625 125.746094 27.855469 126.941406 C 24.5625 128.140625 20.78125 127.113281 18.535156 124.433594 C 16.261719 121.722656 15.949219 117.75 17.773438 114.71875 C 19.570312 111.726562 23.125 110.132812 26.558594 110.78125 C 30.472656 111.523438 33.390625 115.058594 33.390625 119.042969 Z M 33.390625 119.042969 "/>
<path style=" stroke:none;fill-rule:nonzero;fill:rgb(81.960784%,86.666667%,87.058824%);fill-opacity:1;" d="M 71.578125 119.042969 C 71.578125 122.535156 69.332031 125.746094 66.046875 126.941406 C 62.75 128.140625 58.972656 127.113281 56.722656 124.433594 C 54.453125 121.722656 54.140625 117.75 55.960938 114.71875 C 57.757812 111.726562 61.316406 110.132812 64.746094 110.78125 C 68.664062 111.523438 71.578125 115.058594 71.578125 119.042969 Z M 71.578125 119.042969 "/>
<path style=" stroke:none;fill-rule:nonzero;fill:rgb(69.019608%,90.588235%,97.254902%);fill-opacity:1;" d="M 23.242188 100.171875 L 23.242188 90.105469 C 23.242188 88.84375 24.265625 87.820312 25.527344 87.820312 L 40.726562 87.820312 C 48.566406 87.820312 56.054688 91.089844 61.378906 96.84375 L 64.464844 100.175781 Z M 23.242188 100.171875 "/>
<path style=" stroke:none;fill-rule:nonzero;fill:rgb(96.078431%,45.098039%,49.803922%);fill-opacity:1;" d="M 93.226562 6.265625 C 87.191406 1.316406 78.328125 1.316406 72.292969 6.265625 C 66.609375 10.929688 64.171875 19.617188 66.289062 26.609375 C 68.71875 34.632812 76.078125 41.070312 82.316406 46.207031 C 82.464844 46.332031 82.613281 46.453125 82.761719 46.574219 C 82.910156 46.453125 83.058594 46.332031 83.207031 46.207031 C 89.351562 41.140625 96.304688 35.371094 98.957031 27.574219 C 101.398438 20.40625 99.144531 11.121094 93.226562 6.265625 Z M 93.226562 6.265625 "/>
<path style=" stroke:none;fill-rule:nonzero;fill:rgb(98.039216%,98.039216%,98.039216%);fill-opacity:1;" d="M 89.929688 19.730469 C 89.929688 23.691406 86.71875 26.898438 82.761719 26.898438 C 78.800781 26.898438 75.59375 23.691406 75.59375 19.730469 C 75.59375 15.773438 78.800781 12.5625 82.761719 12.5625 C 86.71875 12.5625 89.929688 15.773438 89.929688 19.730469 Z M 89.929688 19.730469 "/>
<path style=" stroke:none;fill-rule:nonzero;fill:rgb(0%,0%,0%);fill-opacity:1;" d="M 61.683594 79.386719 L 76.003906 79.386719 C 79.28125 79.386719 79.285156 74.28125 76.003906 74.28125 L 61.683594 74.28125 C 54.78125 74.28125 49.164062 68.664062 49.164062 61.761719 C 49.164062 54.859375 54.78125 49.242188 61.683594 49.242188 L 82.730469 49.242188 C 83.582031 49.242188 84.332031 48.824219 84.796875 48.183594 C 84.8125 48.171875 84.824219 48.160156 84.839844 48.148438 C 88.457031 45.171875 92.089844 42.179688 95.175781 38.65625 C 98.261719 35.136719 100.800781 31.023438 101.871094 26.464844 C 102.972656 21.761719 102.355469 16.667969 100.488281 12.238281 C 98.949219 8.59375 96.570312 5.234375 93.226562 3.039062 C 89.507812 0.601562 84.882812 -0.421875 80.480469 0.160156 C 75.0625 0.875 70.03125 4 66.871094 8.460938 C 63.710938 12.921875 62.425781 18.640625 63.234375 24.046875 C 63.996094 29.140625 66.515625 33.847656 69.769531 37.839844 C 71.625 40.121094 73.71875 42.1875 75.925781 44.136719 L 61.6875 44.136719 C 51.964844 44.136719 44.058594 52.042969 44.058594 61.761719 C 44.058594 71.480469 51.964844 79.386719 61.683594 79.386719 Z M 68.730469 25.867188 C 66.882812 19.757812 69.109375 12.179688 73.910156 8.242188 C 76.476562 6.136719 79.617188 5.085938 82.761719 5.085938 C 85.894531 5.085938 89.027344 6.132812 91.585938 8.222656 L 91.632812 8.261719 C 96.539062 12.304688 98.695312 20.417969 96.542969 26.75 C 94.265625 33.441406 88.316406 38.664062 82.761719 43.261719 C 76.886719 38.355469 70.773438 32.605469 68.730469 25.867188 Z M 68.730469 25.867188 "/>
<path style=" stroke:none;fill-rule:nonzero;fill:rgb(0%,0%,0%);fill-opacity:1;" d="M 105.726562 74.28125 L 96.339844 74.28125 C 93.0625 74.28125 93.058594 79.386719 96.339844 79.386719 L 105.726562 79.386719 C 113.351562 79.386719 119.558594 85.59375 119.558594 93.222656 C 119.558594 100.847656 113.351562 107.054688 105.726562 107.054688 L 81.84375 107.054688 C 80.667969 101.664062 75.867188 97.617188 70.132812 97.617188 L 65.578125 97.617188 L 63.253906 95.109375 C 57.460938 88.851562 49.25 85.265625 40.726562 85.265625 L 25.527344 85.265625 C 22.859375 85.265625 20.6875 87.4375 20.6875 90.105469 L 20.6875 97.617188 L 17.574219 97.617188 C 10.964844 97.617188 5.585938 102.996094 5.585938 109.605469 C 5.585938 114.984375 9.191406 119.648438 14.222656 121.117188 C 15.195312 126.167969 19.648438 130 24.980469 130 C 30.144531 130 34.484375 126.410156 35.636719 121.59375 L 52.515625 121.59375 C 53.671875 126.410156 58.007812 130 63.171875 130 C 68.558594 130 73.042969 126.09375 73.957031 120.96875 C 77.96875 119.625 80.957031 116.257812 81.84375 112.160156 L 105.726562 112.160156 C 116.167969 112.160156 124.664062 103.664062 124.664062 93.222656 C 124.664062 82.777344 116.167969 74.28125 105.726562 74.28125 Z M 25.792969 90.371094 L 40.726562 90.371094 C 47.386719 90.371094 53.8125 92.996094 58.570312 97.617188 L 25.792969 97.617188 Z M 24.984375 124.894531 C 21.753906 124.894531 19.128906 122.269531 19.128906 119.042969 C 19.128906 115.8125 21.753906 113.1875 24.984375 113.1875 C 28.210938 113.1875 30.835938 115.8125 30.835938 119.042969 C 30.835938 122.269531 28.210938 124.894531 24.984375 124.894531 Z M 63.171875 124.894531 C 59.945312 124.894531 57.320312 122.269531 57.320312 119.042969 C 57.320312 115.8125 59.945312 113.1875 63.171875 113.1875 C 66.398438 113.1875 69.023438 115.8125 69.023438 119.042969 C 69.023438 122.269531 66.398438 124.894531 63.171875 124.894531 Z M 73.566406 115.570312 C 72.109375 111.226562 68.003906 108.082031 63.171875 108.082031 C 58.007812 108.082031 53.671875 111.671875 52.515625 116.488281 L 35.636719 116.488281 C 34.484375 111.671875 30.144531 108.082031 24.984375 108.082031 C 20.078125 108.082031 15.914062 111.320312 14.519531 115.773438 C 12.238281 114.636719 10.691406 112.273438 10.691406 109.605469 C 10.691406 105.808594 13.78125 102.722656 17.574219 102.722656 L 23.242188 102.722656 L 64.464844 102.726562 C 64.484375 102.726562 64.507812 102.722656 64.527344 102.722656 L 70.132812 102.722656 C 73.925781 102.722656 77.015625 105.808594 77.015625 109.605469 C 77.015625 112.128906 75.648438 114.375 73.566406 115.570312 Z M 73.566406 115.570312 "/>
<path style=" stroke:none;fill-rule:nonzero;fill:rgb(0%,0%,0%);fill-opacity:1;" d="M 92.480469 19.730469 C 92.480469 14.371094 88.121094 10.011719 82.761719 10.011719 C 77.402344 10.011719 73.039062 14.371094 73.039062 19.730469 C 73.039062 25.09375 77.402344 29.453125 82.761719 29.453125 C 88.121094 29.453125 92.480469 25.09375 92.480469 19.730469 Z M 78.144531 19.730469 C 78.144531 17.1875 80.214844 15.117188 82.761719 15.117188 C 85.304688 15.117188 87.375 17.1875 87.375 19.730469 C 87.375 22.277344 85.304688 24.347656 82.761719 24.347656 C 80.214844 24.347656 78.144531 22.277344 78.144531 19.730469 Z M 78.144531 19.730469 "/>
<path style=" stroke:none;fill-rule:nonzero;fill:rgb(0%,0%,0%);fill-opacity:1;" d="M 84.515625 75.027344 C 83.53125 76.011719 83.535156 77.65625 84.515625 78.640625 C 85.496094 79.621094 87.144531 79.621094 88.125 78.640625 C 89.078125 77.683594 89.109375 76.105469 88.199219 75.113281 C 87.234375 74.054688 85.527344 74.015625 84.515625 75.027344 C 84.039062 75.503906 84.988281 74.554688 84.515625 75.027344 Z M 84.515625 75.027344 "/>
<path style=" stroke:none;fill-rule:nonzero;fill:rgb(0%,0%,0%);fill-opacity:1;" d="M 63.171875 116.488281 C 61.785156 116.488281 60.617188 117.652344 60.617188 119.039062 C 60.617188 120.429688 61.785156 121.59375 63.171875 121.59375 C 64.519531 121.59375 65.660156 120.496094 65.71875 119.152344 C 65.785156 117.722656 64.605469 116.488281 63.171875 116.488281 Z M 63.171875 116.488281 "/>
<path style=" stroke:none;fill-rule:nonzero;fill:rgb(0%,0%,0%);fill-opacity:1;" d="M 24.980469 116.488281 C 23.59375 116.488281 22.429688 117.652344 22.429688 119.039062 C 22.429688 120.429688 23.59375 121.59375 24.980469 121.59375 C 26.328125 121.59375 27.46875 120.496094 27.53125 119.152344 C 27.59375 117.722656 26.414062 116.488281 24.980469 116.488281 Z M 24.980469 116.488281 "/>
</g>
</svg>
