<svg id="Capa_1" enable-background="new 0 0 512 512" height="512" viewBox="0 0 512 512" width="512" xmlns="http://www.w3.org/2000/svg"><path d="m474.5 470.5h-422v-280h422c16.569 0 30 13.431 30 30v220c0 16.569-13.431 30-30 30z" fill="#ffd576"/><path d="m504.5 220.5v220c0 16.57-13.43 30-30 30h-30c16.57 0 30-13.43 30-30v-220c0-16.57-13.43-30-30-30h30c16.57 0 30 13.43 30 30z" fill="#efba50"/><path d="m72.5 470.5h-35c-16.569 0-30-13.431-30-30v-220c0-16.569 13.431-30 30-30h35z" fill="#cca385"/><path d="m464.5 440.5h-392v-220h392c5.523 0 10 4.477 10 10v200c0 5.523-4.477 10-10 10z" fill="#fff"/><g fill="#ddd"><path d="m72.5 219.707v27.798 27.798l25.591-19.904c5.147-4.004 5.147-11.783 0-15.787z"/><path d="m72.5 275.302v27.798 27.798l25.591-19.904c5.147-4.004 5.147-11.783 0-15.787z"/><path d="m72.5 330.897v27.798 27.798l25.591-19.904c5.147-4.004 5.147-11.783 0-15.787z"/><path d="m72.5 385.698v27.798 27.798l25.591-19.904c5.147-4.004 5.147-11.783 0-15.787z"/></g><path d="m414.5 51v35.5h-35v-35.5c0-5.523 4.477-9.5 10-9.5h15c5.523 0 10 3.977 10 9.5z" fill="#8e9ba8"/><path d="m429.5 91v253.5h-65v-253.5c0-8.284 6.716-14.5 15-14.5h35c8.284 0 15 6.216 15 14.5z" fill="#99d0f2"/><path d="m429.5 91v253.5h-30v-253.5c0-8.28-6.72-14.5-15-14.5h30c8.28 0 15 6.22 15 14.5z" fill="#64b1cc"/><path d="m382.5 222.5h29v65h-29z" fill="#64b1cc" transform="matrix(0 -1 1 0 142 652)"/><path d="m429.5 344.5h-65l26.239 52.478c2.58 5.159 9.942 5.159 12.522 0z" fill="#64b1cc"/><path d="m429.5 344.5-26.24 52.48c-2.58 5.16-9.94 5.16-12.52 0l-8.74-17.48 17.5-35z" fill="#478ebf"/><path d="m137 277h155c4.142 0 7.5-3.358 7.5-7.5s-3.358-7.5-7.5-7.5h-155c-4.142 0-7.5 3.358-7.5 7.5s3.358 7.5 7.5 7.5z"/><path d="m137 317h155c4.142 0 7.5-3.358 7.5-7.5s-3.358-7.5-7.5-7.5h-155c-4.142 0-7.5 3.358-7.5 7.5s3.358 7.5 7.5 7.5z"/><path d="m183 403h-46c-4.142 0-7.5 3.358-7.5 7.5s3.358 7.5 7.5 7.5h46c4.142 0 7.5-3.358 7.5-7.5s-3.358-7.5-7.5-7.5z"/><path d="m259 403h-46c-4.142 0-7.5 3.358-7.5 7.5s3.358 7.5 7.5 7.5h46c4.142 0 7.5-3.358 7.5-7.5s-3.358-7.5-7.5-7.5z"/><path d="m335 403h-46c-4.142 0-7.5 3.358-7.5 7.5s3.358 7.5 7.5 7.5h46c4.142 0 7.5-3.358 7.5-7.5s-3.358-7.5-7.5-7.5z"/><path d="m474.5 183h-37.5v-13h2.5c15.164 0 27.5-12.336 27.5-27.5v-55.5c0-4.142-3.358-7.5-7.5-7.5s-7.5 3.358-7.5 7.5v55.5c0 6.893-5.607 12.5-12.5 12.5h-2.5v-64c0-9.752-6.179-17.829-15-20.787v-19.213c0-9.533-7.687-17-17.5-17h-15c-9.813 0-17.5 7.467-17.5 17v19.213c-8.821 2.958-15 11.035-15 20.787v64.5c0 4.142 3.358 7.5 7.5 7.5s7.5-3.358 7.5-7.5v-64.5c0-3.991 3.224-7 7.5-7h35c4.276 0 7.5 3.009 7.5 7v142h-50v-42.5c0-4.142-3.358-7.5-7.5-7.5h-327c-20.678 0-37.5 16.822-37.5 37.5v220c0 20.678 16.822 37.5 37.5 37.5h84.5c4.142 0 7.5-3.358 7.5-7.5s-3.358-7.5-7.5-7.5h-42v-15h384.5c9.649 0 17.5-7.851 17.5-17.5v-200c0-9.649-7.851-17.5-17.5-17.5h-27.5v-15h37.5c12.407 0 22.5 10.093 22.5 22.5v220c0 12.407-10.093 22.5-22.5 22.5h-317.5c-4.142 0-7.5 3.358-7.5 7.5s3.358 7.5 7.5 7.5h317.5c20.678 0 37.5-16.822 37.5-37.5v-220c0-20.678-16.822-37.5-37.5-37.5zm-52.5 154h-50v-60h50zm-11.634 28.998-26.731.002-7-14h40.729zm-20.866-316.998h15c.256 0 2.5.056 2.5 2v18h-20v-18c0-1.944 2.244-2 2.5-2zm32.5 199v14h-50v-14zm-65-35h-277v-15h277zm-263.514 202.469-13.486 10.49v-24.926l13.486 10.489c.84.653.966 1.517.965 1.974 0 .457-.125 1.32-.965 1.973zm-13.486-69.237 13.486 10.49c.84.653.965 1.516.965 1.973s-.125 1.321-.965 1.974l-13.486 10.488zm0-55.595 13.486 10.49c.84.653.965 1.516.965 1.973s-.125 1.321-.965 1.974l-13.486 10.489zm0-55.596 13.486 10.49c.84.653.965 1.516.965 1.973s-.125 1.321-.965 1.974l-13.486 10.489zm-65 205.459v-220c0-12.407 10.093-22.5 22.5-22.5h27.5v265h-27.5c-12.407 0-22.5-10.093-22.5-22.5zm449.5-212.5c1.378 0 2.5 1.122 2.5 2.5v200c0 1.378-1.122 2.5-2.5 2.5h-369.121l7.316-5.69c4.293-3.339 6.756-8.374 6.756-13.813s-2.462-10.474-6.756-13.814l-17.469-13.587 17.469-13.587c4.293-3.34 6.756-8.375 6.755-13.814 0-5.439-2.462-10.474-6.756-13.813l-17.979-13.984 17.98-13.984c4.293-3.34 6.756-8.375 6.755-13.814 0-5.439-2.462-10.474-6.756-13.813l-17.979-13.984 17.98-13.984c4.293-3.34 6.756-8.375 6.755-13.814 0-5.439-2.462-10.474-6.756-13.813l-7.315-5.692h261.621v34h-35c-4.142 0-7.5 3.358-7.5 7.5s3.358 7.5 7.5 7.5h35v25h-35c-4.142 0-7.5 3.358-7.5 7.5s3.358 7.5 7.5 7.5h35v27.5c0 1.156.275 2.32.792 3.354l28.028 56.056c2.131 4.262 6.415 6.91 11.18 6.91s9.049-2.648 11.18-6.91l28.028-56.056c.517-1.034.792-2.198.792-3.354v-116.5z"/></svg>